<svg width="42" height="42" viewBox="0 0 42 42" fill="none" xmlns="http://www.w3.org/2000/svg">
<g clip-path="url(#clip0_28_121)">
<path d="M5.11235 34.135C5.52099 34.6144 5.9521 35.0742 6.40421 35.5128C7.92818 37.0128 9.74551 38.2736 11.6951 39.2271C12.4134 39.5634 13.076 39.9119 13.8523 40.2119C14.0463 40.2864 14.2444 40.3662 14.4527 40.4381C14.6628 40.5046 14.8806 40.5712 15.1083 40.6371C15.3346 40.7078 15.576 40.7581 15.8284 40.8103C16.081 40.861 16.3433 40.919 16.625 40.9479C15.2275 40.6533 13.8655 40.2107 12.5618 39.6276C11.25 39.0358 10.0035 38.3088 8.84269 37.4582C6.51773 35.7551 4.52912 33.5683 3.07657 31.0686C3.01662 30.9938 2.92559 30.8514 2.81648 30.67L2.64103 30.3729L2.46404 30.0311C2.34633 29.7939 2.21078 29.5532 2.10696 29.32C2.01387 29.116 1.91642 28.9141 1.81469 28.7143C2.2661 29.8386 2.78717 30.8221 3.37061 31.7574C3.63936 32.1863 3.92381 32.6051 4.22341 33.0131C4.18109 32.956 4.137 32.9004 4.0949 32.8431C4.41595 33.2854 4.75418 33.7148 5.10882 34.1306L5.11235 34.135ZM0.412614 23.357L0.306152 22.5029C0.362579 23.0242 0.428043 23.6068 0.547729 24.19L0.475653 23.7758C0.449049 23.6371 0.428019 23.4974 0.412614 23.357ZM19.0328 40.8875C20.499 41.0358 22.0366 40.9915 23.5427 40.7533C25.0497 40.5159 26.5237 40.0949 27.894 39.5522C25.3702 40.5447 22.6917 40.9862 20.0714 40.9124C19.7207 40.9069 19.3751 40.9124 19.0328 40.8875Z" fill="white"/>
<path d="M10.351 37.8878L10.2939 37.8514C10.3131 37.8636 10.3319 37.8759 10.351 37.8878ZM12.4783 39.0598C13.6864 39.6219 14.9519 40.0517 16.2525 40.3417C14.1171 39.8546 12.1075 38.9952 10.351 37.8878C11.0255 38.317 11.7346 38.7142 12.4783 39.0598ZM39.1322 23.5887C39.1538 23.2404 39.1975 22.875 39.2085 22.7011C39.3394 21.5833 39.3782 20.6289 39.3727 19.6714C39.3484 19.4989 39.279 19.1755 39.2515 18.8078C39.2177 18.4393 39.1681 18.0785 39.1263 17.7225C39.0626 17.3696 39.0077 17.0203 38.938 16.6777C39.4395 19.2383 39.4311 21.8088 38.9698 24.2341C39.0205 24.0181 39.0746 23.8029 39.1322 23.5887Z" fill="white"/>
<path d="M0.313751 18.3843C0.500665 16.8634 0.898517 15.3809 1.27697 14.3932L1.12378 15.1162C1.21834 14.9044 1.37109 14.4122 1.57939 13.8913L1.72971 13.4941L1.89568 13.1091C2.00589 12.8598 2.09847 12.6235 2.19611 12.4423C2.12933 12.6122 2.06496 12.7954 1.98738 12.9792C1.91133 13.1637 1.82603 13.3511 1.7447 13.5395L2.07841 12.7881C1.7417 13.6316 1.45185 14.4931 1.21019 15.3686C0.960455 16.3278 0.762961 17.336 0.65672 18.241C0.625862 18.4667 0.615061 18.6872 0.595003 18.8974C0.580235 19.1077 0.554667 19.3083 0.552683 19.4978C0.543426 19.8767 0.530641 20.2085 0.537033 20.4739C0.560177 21.0048 0.592138 21.2696 0.638205 21.1217C0.728796 20.8278 0.727033 19.3169 1.04311 17.4259C1.21217 16.4834 1.45485 15.4497 1.78415 14.4368C2.11103 13.4232 2.53952 12.4403 2.98322 11.5732L2.85274 11.858L2.73261 12.1513L2.48662 12.7445L2.26092 13.3572L2.14608 13.6663C2.11235 13.7712 2.07819 13.8765 2.04447 13.9823C1.75352 14.8215 1.53596 15.7051 1.34641 16.5958L1.22319 17.2685C1.17801 17.4921 1.15883 17.7195 1.12533 17.9446C1.05523 18.3944 1.02967 18.8476 0.990652 19.2955C0.946789 20.1935 0.937972 21.0804 1.01931 21.9286C1.016 21.7271 1.01269 21.5482 1.01556 21.3749L1.04091 20.8558C1.05149 20.6775 1.0495 20.4884 1.06625 20.2717C1.08168 20.0551 1.09579 19.8108 1.10813 19.5219C1.19432 18.0654 1.45463 16.6234 1.85932 15.2279C2.24505 13.8265 2.69999 12.5924 3.37777 11.4742L3.55432 11.1379C3.67379 10.9122 3.7732 10.6895 3.8995 10.4625C4.04343 10.2134 4.18119 10.027 4.29272 9.85614C4.40756 9.68708 4.50498 9.53852 4.61651 9.39437L5.42809 8.27421C5.44462 8.27222 5.42324 8.31498 5.38401 8.37846C5.51782 8.18778 5.66196 8.00456 5.8158 7.82962C5.98222 7.63676 6.14378 7.43221 6.28066 7.26337C6.31284 7.26183 6.34414 7.26095 6.41798 7.20805C8.32459 5.18087 10.6709 3.52885 13.3151 2.48738L13.9029 2.25836L14.498 2.06021L14.7941 1.96146L15.0938 1.8777L15.6912 1.71173C16.0328 1.62951 16.3789 1.54619 16.7317 1.47125L17.2689 1.37735C17.4494 1.34628 17.6308 1.31123 17.8164 1.29404C18.1854 1.24973 18.5072 1.15628 18.6807 1.13335C19.6437 1.07847 20.6049 1.08949 21.7332 1.18096C21.8207 1.18251 21.9569 1.19044 22.115 1.19904C22.273 1.20807 22.4538 1.21248 22.629 1.22857C22.8344 1.27486 23.0537 1.32071 23.2839 1.36545C24.6877 1.58322 26.045 1.97248 27.3364 2.49024L27.3349 2.48407L27.8295 2.68112L28.3343 2.91432C28.6806 3.06509 29.0198 3.25795 29.3702 3.43958C29.5461 3.52929 29.7128 3.63883 29.8856 3.73802C30.0553 3.8425 30.2329 3.93507 30.3969 4.04925C30.7293 4.27011 31.0663 4.48149 31.3769 4.71756C31.8777 5.0789 32.363 5.46115 32.8317 5.86328C32.8418 5.87254 32.8524 5.88114 32.8625 5.89017L32.8718 5.89855L33.1929 6.18994L33.5002 6.49654L33.8077 6.80336C33.9095 6.9063 34.0038 7.01651 34.1024 7.12275C34.0548 7.0456 34.0565 7.01452 34.0583 6.98388C33.9064 6.83841 33.7268 6.66626 33.5493 6.49676C33.8454 6.76611 34.1037 7.00967 34.3157 7.20849C34.3975 7.31297 34.4868 7.41568 34.5714 7.52787L34.8328 7.87305L35.1108 8.23211L35.3874 8.61828C35.8781 9.24382 36.3112 9.91301 36.7225 10.5954C36.9129 10.9454 37.123 11.2855 37.2925 11.6477L37.5598 12.1846L37.8005 12.735C37.8697 12.8525 37.8428 12.7399 37.8514 12.72C38.1215 13.3729 38.3386 14.0518 38.5352 14.736C38.911 15.9724 39.1627 17.2432 39.2864 18.5296C39.336 18.8333 39.3571 19.1406 39.401 19.4449L39.3739 20.0894C39.3736 20.3326 39.3864 20.5757 39.3761 20.8192L39.3479 21.5524C39.3443 21.7177 39.3205 21.8982 39.3066 22.0944C39.2881 22.2901 39.2784 22.5013 39.2502 22.7239L39.1594 23.4274C39.1303 23.6741 39.0741 23.9276 39.0309 24.1925C38.8158 25.3559 38.4977 26.4979 38.0805 27.605C38.0271 27.7871 37.9863 27.9325 37.95 28.0139C37.8118 28.3447 37.6643 28.665 37.5219 28.9804C37.3626 29.2877 37.2164 29.5949 37.0531 29.8859C36.548 30.8437 35.9618 31.7566 35.301 32.6144C35.2269 32.7112 35.158 32.8095 35.0835 32.9003L34.8635 33.1661C34.718 33.3378 34.588 33.5095 34.45 33.6585C34.1742 33.9566 33.9428 34.233 33.7257 34.4408C33.477 34.7005 33.4993 34.7126 33.6715 34.5874C33.7923 34.4981 33.9105 34.4054 34.0259 34.3092L34.4936 33.8873C34.6647 33.7381 34.8284 33.5697 34.9862 33.411C35.1423 33.2512 35.2984 33.1055 35.4187 32.9737C35.6614 32.7112 35.8207 32.5492 35.7868 32.6213C35.3951 33.3586 34.6819 34.268 33.6393 35.274C33.1074 35.7649 32.509 36.2983 31.8012 36.8125C31.456 37.0816 31.0723 37.3278 30.6811 37.5967C30.2768 37.8443 29.8638 38.1154 29.4121 38.3561C28.4238 38.8943 30.1538 38.031 30.2006 38.0228C30.0337 38.1542 29.8587 38.2749 29.6766 38.3843C29.3508 38.5575 29.0279 38.7363 28.6905 38.8853C28.4932 38.9759 28.2994 39.0738 28.1 39.1584L27.4985 39.4057L27.8167 39.2805C28.4674 39.022 29.0755 38.7173 29.6246 38.416C29.4183 38.5408 29.1926 38.6852 28.9453 38.8154C28.6801 38.9525 28.4057 39.1024 28.1304 39.2362L27.3314 39.6078C30.1897 38.5694 32.8165 36.8511 34.8959 34.611C35.9369 33.4943 36.8653 32.2677 37.6222 30.9408C38.3838 29.6166 38.9965 28.2121 39.449 26.7531C38.7538 28.9418 37.67 30.9525 36.3674 32.6526C38.7355 29.455 40.1475 25.5346 40.3347 21.4915C40.3344 21.7144 40.3124 21.9363 40.2976 22.1583C40.2793 22.3802 40.2705 22.6031 40.2445 22.8244C40.1879 23.2663 40.1473 23.7107 40.0622 24.1489C39.9247 25.0305 39.7016 25.897 39.449 26.7531C39.9476 25.2055 40.2454 23.5738 40.3627 21.9328C40.4848 20.2905 40.3829 18.6382 40.1297 17.0371C40.5648 19.158 40.6369 21.561 40.2661 23.9357C40.5266 22.404 40.5928 20.8252 40.4927 19.2598C40.4702 18.6618 40.3997 18.068 40.3417 17.5183C40.2586 16.9725 40.1958 16.4687 40.1153 16.0611C40.4339 17.5657 40.5595 18.8489 40.6208 20.0586C40.5619 17.4187 40.0151 14.7439 38.9412 12.2314C39.5273 13.596 40.0084 15.0639 40.3023 16.5731C40.5976 18.0808 40.7204 19.6233 40.6505 21.1071C40.6472 20.9334 40.6545 20.76 40.6444 20.5856L40.6208 20.0586C40.684 22.4501 40.3157 24.8205 39.5857 27.0496C39.2194 28.164 38.7668 29.2469 38.2191 30.2773C37.6725 31.3062 37.0414 32.288 36.3323 33.2124C37.1419 32.2668 37.9967 30.9302 38.6789 29.462C39.358 27.9907 39.8621 26.3995 40.2088 25.0098C39.6988 27.5054 38.6864 29.9679 37.2175 32.167C35.7526 34.3678 33.8339 36.3029 31.6139 37.7881C29.3965 39.2779 26.8806 40.309 24.2989 40.8184C23.0169 41.0729 21.7139 41.2064 20.407 41.2171C19.1239 41.2239 17.8429 41.1121 16.5803 40.8832L17.2427 41.009C17.4635 41.0509 17.6875 41.074 17.9097 41.1071C18.354 41.1785 18.8034 41.2054 19.2513 41.2466C20.1491 41.2971 21.0517 41.3141 21.9514 41.2455C22.8527 41.1977 23.7483 41.0632 24.6396 40.899C25.0818 40.7985 25.5292 40.7163 25.9659 40.5874C26.185 40.5261 26.4067 40.4725 26.6243 40.4044L27.2756 40.1932C26.9468 40.2951 26.6007 40.43 26.2311 40.5289L25.768 40.6652C26.7398 40.406 27.691 40.0748 28.6135 39.6742C29.0356 39.49 29.451 39.2912 29.8591 39.0779C29.0945 39.4835 28.3058 39.8422 27.4976 40.1518C25.9563 40.727 24.3546 41.125 22.7233 41.3381C22.4787 41.3769 22.2556 41.389 22.0557 41.41L21.5205 41.4629C21.2055 41.4878 20.973 41.499 20.8103 41.5169C20.4848 41.5493 20.4385 41.5795 20.5681 41.6044C20.6975 41.6293 21.0025 41.6491 21.3777 41.6597C21.7517 41.6575 22.1954 41.6374 22.599 41.6006C26.654 41.1847 30.3771 39.5933 33.3607 37.2108C36.3462 34.8279 38.6328 31.6624 39.9073 28.0708C39.9873 27.8622 40.0488 27.6471 40.1153 27.4337C40.1799 27.2197 40.2514 27.0079 40.3098 26.7919C40.418 26.3577 40.546 25.9285 40.6289 25.4877L40.7654 24.8297L40.8727 24.1658L40.9258 23.8337L40.9637 23.4993L41.0391 22.8306C41.193 21.0421 41.1321 19.2344 40.8601 17.4605C40.7147 16.4568 40.459 15.265 40.1295 14.2034L39.876 13.4355C39.7878 13.1915 39.6941 12.9614 39.6108 12.7449L39.488 12.433L39.3622 12.1529L39.146 11.6847C38.4552 10.2831 37.5872 8.94626 36.571 7.70288C35.556 6.45907 34.3898 5.30739 33.075 4.30449L32.5804 3.92912L32.0675 3.57469L31.8105 3.39704L31.5453 3.2304L31.0126 2.89801C30.2863 2.47834 29.5424 2.07387 28.7581 1.7384C27.982 1.38617 27.1698 1.10029 26.343 0.844606C25.9253 0.729989 25.5096 0.602147 25.0814 0.514201C24.868 0.468134 24.6564 0.412148 24.4406 0.373575L23.7917 0.258738C22.24 -0.0143593 20.6258 -0.0793824 19.0133 0.041847C17.4016 0.166383 15.7831 0.472322 14.2311 1.00044L13.6503 1.20168C13.4561 1.26715 13.269 1.35201 13.0779 1.42629C12.8888 1.50542 12.6955 1.57463 12.5099 1.66191L11.9518 1.92046C11.764 2.00334 11.5826 2.09856 11.4016 2.19488L10.8574 2.48076L10.328 2.79199C10.1516 2.89603 9.97397 2.99764 9.80513 3.11336L9.29288 3.45016C9.12052 3.5597 8.96093 3.68777 8.79452 3.80547C8.63119 3.92758 8.46169 4.04132 8.30387 4.17004L7.82843 4.5529C7.66775 4.67744 7.5161 4.81256 7.36489 4.94789L6.91017 5.35125L6.47573 5.77424C6.33114 5.91508 6.185 6.05439 6.05033 6.20427C4.94141 7.37204 3.96716 8.64605 3.17036 9.99412C2.38899 11.3166 1.74869 12.7174 1.26 14.1737C0.295677 17.0215 0.0190532 19.9096 0.147777 22.5182C0.120004 21.4444 0.115375 19.9043 0.313751 18.3843ZM31.4217 38.3201C32.0915 37.8872 32.7365 37.4171 33.3536 36.9119C32.7276 37.4275 32.0845 37.9036 31.4217 38.3201ZM40.2862 26.3555C40.2203 26.5541 40.1645 26.7502 40.0918 26.9376L39.8808 27.4937L39.7781 27.7688L39.665 28.0401C39.5895 28.223 39.5163 28.4067 39.4453 28.5914C39.0372 29.6079 38.5518 30.5916 37.9934 31.5339C37.4377 32.4762 36.7937 33.3592 36.1055 34.1878C35.7656 34.6063 35.3953 34.9945 35.0312 35.3826L34.4623 35.9388C34.2756 36.1257 34.0713 36.2923 33.8778 36.4686C33.7155 36.6097 33.552 36.7477 33.3873 36.8835C33.9989 36.3812 34.58 35.843 35.1278 35.2718C34.3353 36.0932 33.4732 36.8445 32.5513 37.5174C32.3229 37.6765 32.1023 37.8471 31.8651 37.997L31.1494 38.4531L30.3934 38.8826C30.1362 39.0255 29.8646 39.1524 29.5924 39.2915C29.7874 39.1766 29.9847 39.0658 30.1842 38.9591C30.4093 38.8342 30.6453 38.6865 30.8759 38.5514C31.1082 38.4189 31.3194 38.2734 31.4948 38.1517C31.6703 38.0301 31.8078 37.9291 31.8795 37.8639C31.7772 37.9333 31.6732 37.9999 31.5696 38.0675C31.681 37.9941 31.7917 37.9195 31.9017 37.8438C31.8971 37.8489 31.8874 37.8568 31.8795 37.8639C34.2891 36.2182 36.3418 34.0557 37.8799 31.5904C39.4248 29.1272 40.4301 26.3486 40.8467 23.5229C40.7563 24.6563 40.5487 25.5613 40.2862 26.3555ZM36.9574 9.15191C37.6208 10.1538 38.1941 11.2124 38.6707 12.3153C38.7258 12.4363 38.7779 12.5591 38.8292 12.6821C39.9231 15.3611 40.4208 18.2349 40.3479 21.0659C40.3664 20.1291 40.3042 19.1928 40.2004 18.2644C40.083 17.1945 39.8658 16.1374 39.578 15.1034C39.0133 13.0299 38.0961 11.0647 36.9319 9.27314C37.0388 9.42082 37.1514 9.58084 37.268 9.75056C37.3928 9.92621 37.5098 10.1074 37.6185 10.2934L37.4778 10.049L37.326 9.81118L37.0222 9.33596C36.8155 9.02208 36.5913 8.71967 36.3755 8.41197C36.1415 8.11793 35.9195 7.8142 35.6759 7.52787C35.4917 7.31782 35.3151 7.10071 35.1282 6.89329C35.7877 7.58871 36.4068 8.33482 36.9574 9.15191ZM21.4736 0.237357C21.7969 0.25455 22.1209 0.286069 22.445 0.310315C22.7103 0.332577 22.9744 0.371812 23.2358 0.401347C23.3143 0.404654 23.3972 0.409944 23.5012 0.421626C23.605 0.435953 23.7291 0.462623 23.8911 0.499653C25.0966 0.700674 26.1965 1.00287 26.9772 1.31498C28.4756 1.88211 29.8697 2.58766 31.1342 3.40255C32.3992 4.21589 33.5344 5.14098 34.4947 6.15137C34.9373 6.63166 34.8081 6.52696 34.5641 6.29376L34.9305 6.68257C34.7683 6.52079 34.6089 6.3568 34.4442 6.19854L33.9371 5.73787C34.0605 5.84587 34.3598 6.10442 34.5641 6.29376C32.9355 4.63203 31.0317 3.25222 28.9711 2.2372C26.9088 1.22262 24.6881 0.595976 22.4683 0.345802C22.825 0.385477 23 0.394294 23.1666 0.398702C22.9274 0.370709 22.6876 0.332357 22.445 0.310315C22.119 0.288935 21.7936 0.25984 21.47 0.24397L20.509 0.221267C20.8273 0.221046 21.1498 0.229863 21.4736 0.237357Z" fill="white"/>
<path d="M25.674 40.6923L25.7679 40.6647C25.6696 40.6912 25.5728 40.7203 25.4739 40.7454C25.5409 40.7287 25.6081 40.7124 25.674 40.6923ZM35.4786 32.1976C36.4121 30.9662 37.2369 29.4947 37.7634 28.2271L37.7571 28.2284C36.4211 31.3852 34.2542 34.1047 31.5501 36.107C32.0302 35.7733 32.5019 35.4276 32.9647 35.0703C33.5594 34.4488 34.5546 33.4379 35.4786 32.1976ZM7.91016 35.8775C9.49099 37.2908 11.3974 38.5208 13.5193 39.3493C14.3468 39.6607 15.1912 39.9336 16.0548 40.1258C16.4833 40.2365 16.9208 40.3048 17.355 40.3861C17.5726 40.4247 17.793 40.4461 18.0117 40.477C18.2307 40.5054 18.4494 40.5376 18.67 40.5504C17.674 40.4399 16.6852 40.2746 15.7226 40.0125C14.7607 39.7513 13.8178 39.4284 12.9081 39.0319C12.0032 38.629 11.1272 38.164 10.2865 37.6402C9.45197 37.1094 8.66068 36.5167 7.91016 35.8775ZM27.423 38.3971L26.9339 38.5891L26.4345 38.7557C26.1038 38.8747 25.7628 38.9638 25.4227 39.0583C25.7646 38.9724 26.1085 38.8922 26.4419 38.7819L26.9452 38.6281L27.4367 38.4485C27.4177 38.4388 27.3058 38.4606 27.423 38.3971ZM21.6494 39.6508C21.3937 39.6727 21.1367 39.6707 20.8793 39.6733C20.6218 39.6764 20.3639 39.6819 20.1058 39.6649L20.4532 39.6976C20.5595 39.7044 20.6551 39.7125 20.7387 39.7225C21.043 39.6965 21.3452 39.6892 21.6494 39.6508ZM11.4569 37.28C11.7525 37.4535 12.0663 37.6062 12.3778 37.7746C12.4558 37.8174 12.5973 37.8661 12.7748 37.9309C12.3954 37.768 12.032 37.5661 11.6625 37.3788C11.4796 37.2816 11.3035 37.1727 11.1241 37.0713C10.9451 36.969 10.7668 36.867 10.5975 36.7528L10.804 36.8908L11.0194 37.0195L11.4569 37.28Z" fill="white"/>
<path d="M21.3486 35.3137C19.1988 35.3137 19.1407 26.8598 19.1988 19.5969C19.2279 16.0526 19.3731 10.4167 18.2982 10.4167C17.3395 10.4167 15.5964 13.9609 14.3182 19.1321C13.1561 23.8094 12.1974 28.6319 12.4008 29.7068C12.546 30.4622 12.0812 30.4622 11.9941 29.7649C11.7907 28.2542 12.546 23.025 13.65 18.9578C14.783 14.7453 16.5551 9.83564 18.2111 9.83564C20.2737 9.83564 20.0704 16.9823 20.0123 19.4807C19.896 25.0005 19.8089 34.7327 21.3777 34.7327C22.9174 34.7327 26.055 29.1548 27.4785 22.5021C28.4662 17.8538 28.902 10.0971 28.6115 6.93049C28.5824 6.40757 29.1054 6.66903 29.1344 7.0467C29.5121 11.0267 29.1635 17.1857 27.9433 22.9378C26.3745 30.5203 23.2951 35.3137 21.3486 35.3137Z" fill="white"/>
</g>
<defs>
<clipPath id="clip0_28_121">
<rect width="41.0971" height="41.6361" fill="white"/>
</clipPath>
</defs>
</svg>
