<svg width="194" height="22" viewBox="0 0 194 22" fill="none" xmlns="http://www.w3.org/2000/svg">
<path d="M14.1875 0.283015H17.1351V21.3329H13.9344L2.93274 4.62988V21.3329H0V0.283015H3.17093L14.1871 16.9113L14.1875 0.283015ZM37.5339 21.6157C31.5643 21.6157 27.0086 17.507 27.0086 10.7931C27.0086 4.09404 31.564 0.00030457 37.5339 0.00030457C43.4738 0.00030457 48.044 4.09419 48.044 10.7931C48.044 17.5071 43.4737 21.6157 37.5339 21.6157ZM37.5339 18.8318C41.7469 18.8318 45.0815 15.914 45.0815 10.7928C45.0815 5.7164 41.7469 2.79883 37.5339 2.79883C33.3061 2.79883 29.9565 5.71663 29.9565 10.7928C29.9565 15.914 33.3061 18.8318 37.5339 18.8318ZM70.9591 0.283015H74.0854L66.3444 21.3329H63.2479L55.5367 0.283015H58.648L64.8111 17.701L70.9591 0.283015ZM96.6573 21.3329L94.9007 16.4202H85.492L83.7354 21.3329H80.6538L88.41 0.283015H91.9828L99.739 21.3329H96.6573ZM86.4154 13.8299H93.978L90.1967 3.21537L86.4154 13.8299ZM122.878 0.283015H125.825V21.3329H122.625L111.623 4.62988V21.3329H108.69V0.283015H111.861L122.877 16.9113L122.878 0.283015ZM148.606 2.94769H140.18V9.49793H147.608V12.1478H140.18V18.6534H148.606V21.333H137.158V0.283167H148.606V2.94769ZM165.15 21.6157C160.758 21.6157 157.542 19.5167 156.828 15.9438L159.85 15.2293C160.326 17.6856 162.455 19.0998 165.254 19.0998C167.502 19.0998 169.66 18.1769 169.616 15.646C169.586 13.145 166.876 12.4602 164.003 11.6713C160.743 10.7781 157.483 9.7509 157.483 5.88027C157.483 1.96504 160.713 0 164.539 0C168.246 0 171.581 1.56313 172.369 5.18064L169.496 5.91009C168.975 3.57286 167.025 2.53078 164.673 2.53078C162.559 2.53078 160.46 3.45373 160.46 5.85056C160.46 8.02407 162.812 8.66417 165.477 9.37874C168.826 10.2868 172.667 11.3289 172.667 15.5568C172.667 19.8144 169.095 21.6157 165.15 21.6157ZM193.676 0.283015V2.94776H188.347V21.3329H185.414V2.94776H180.07V0.283015H193.676Z" fill="white"/>
</svg>
