<svg width="49" height="53" viewBox="0 0 49 53" fill="none" xmlns="http://www.w3.org/2000/svg">
<path d="M11.4463 0.36417C11.4603 0.429756 11.5961 0.304873 11.6367 0.339613C11.7146 -0.307861 11.3959 0.126143 11.4463 0.36417ZM6.71881 47.5708C6.71288 47.4056 6.70695 47.2404 6.70102 47.0751C6.82996 46.9949 6.95167 47.1401 7.08244 47.011C7.10396 46.9893 7.15435 46.5247 7.19732 46.5123C7.24027 46.5 7.10576 47.1215 7.14864 47.1996C7.19712 47.2854 7.57563 46.9105 7.67391 46.9415C8.04098 47.0601 8.3473 47.4932 8.77645 47.3111C8.48185 46.771 8.96905 46.3817 9.03717 46.6037C9.05185 46.6548 8.81186 47.8123 9.26118 47.6001C9.54667 47.4656 9.65544 45.7631 9.89974 46.6769C9.34565 47.7705 9.67484 47.753 9.91621 47.8423C9.95778 47.8579 10.3402 47.7546 10.4831 47.8372C10.5319 47.8657 10.4881 48.4887 10.5544 48.5188C10.6001 48.5391 10.7039 48.2148 10.7716 48.2461C11.0877 48.3885 11.4083 48.4807 11.7631 48.4362C11.887 46.8377 12.0509 47.8028 12.0816 47.7315C12.247 47.3243 11.9139 47.1309 12.1093 46.895C12.2972 46.9836 12.485 47.0722 12.6728 47.1608C12.4716 47.3191 12.6199 48.5174 12.7933 48.0215C12.4819 49.3929 13.9388 47.0061 13.9868 47.4951C13.9965 47.5983 13.6644 48.2397 14.1763 48.0197C14.2319 47.995 14.2983 47.5756 14.3159 47.6196C14.3264 47.646 14.1494 48.9859 14.3966 48.2759C14.4868 48.0168 14.4339 47.1023 14.8675 47.5539C14.3924 48.8575 15.4189 48.4248 15.6533 48.1216C15.5833 48.2955 15.5134 48.4694 15.4435 48.6433C15.7067 48.1894 15.643 48.6526 15.685 48.6352C15.8541 48.5654 16.1525 48.1464 16.2825 48.2167C16.4348 48.2981 16.2649 49.1345 16.5202 48.8477C16.4377 49.0231 16.3553 49.1984 16.2728 49.3738C16.4124 49.356 16.552 49.3382 16.6916 49.3203C16.615 48.1518 16.7676 49.2808 16.7869 49.3096C16.8173 49.3577 16.8542 48.8933 16.9073 48.9629C16.9121 48.9735 16.8154 49.3983 16.9052 49.4665C17.0931 49.6076 17.1696 49.0644 17.2557 49.0882C17.2631 49.0926 17.1567 49.4714 17.289 49.5931C17.7093 49.9803 17.3467 49.298 17.3391 49.2411C17.3293 49.1661 17.8212 47.593 17.2979 48.0796C17.4716 47.9262 17.6303 47.218 17.6493 47.2035C17.6658 47.1918 17.8823 47.3402 17.8904 47.3674C17.9576 47.6325 17.7561 48.0975 17.761 48.1892C17.7653 48.2631 18.1798 47.6882 17.9487 49.1631C18.3601 47.8431 18.1198 47.9227 17.933 47.6688C17.956 47.3854 18.2623 47.1678 18.2754 47.1712C18.5993 47.2398 18.1936 48.3119 18.12 49.0351C18.0817 49.4135 18.3681 48.684 18.0434 49.6533C18.3164 49.8183 18.2553 49.2058 18.2917 49.1244C18.3459 49.005 18.3908 49.3109 18.4115 49.2756C18.4418 49.2233 18.4462 48.8656 18.5456 48.7596C18.5616 48.7445 18.561 49.3613 18.3483 49.6128C18.5726 49.5709 18.4525 50.0724 18.7303 49.0689C18.4804 51.0236 19.0659 47.9518 19.1441 47.8554C19.3515 47.6014 18.9999 49.1045 18.9927 49.1798C18.9508 49.6633 19.4702 49.2283 19.5282 49.467C19.7098 48.3699 19.2028 49.3883 19.1816 49.164C19.1106 48.4174 19.5946 48.6811 19.7179 47.2812C19.7065 47.6702 19.6952 48.0593 19.6838 48.4484C19.9828 47.5931 19.8913 47.1749 20.1477 47.562C20.0455 48.332 19.9445 47.3956 19.8788 48.0052C19.8404 48.363 20.0117 48.4764 19.9776 48.6622C19.9359 48.8857 19.821 48.5873 19.7777 48.9354C19.685 49.6866 20.4439 49.1082 20.0578 48.6091C20.1858 48.6484 20.553 47.1915 20.5729 47.6728C20.5855 47.9852 19.7592 49.9323 20.4535 49.6859C20.6083 48.9941 20.2481 49.4304 20.2521 49.3762C20.2583 49.2973 20.6249 47.7398 20.6489 47.6642C20.7296 47.4154 21.1901 48.3833 21.484 47.6231C21.2465 48.5181 21.9283 47.8821 21.9297 48.1698C21.9296 48.2491 21.759 48.7922 21.7635 48.8543C21.7947 49.2247 22.2738 48.2908 22.4077 48.2914C22.5575 48.2917 22.4416 48.7671 22.4498 48.7678C22.5186 48.754 22.5343 48.4189 22.5728 48.4277C22.6309 48.4412 23.0464 48.4567 23.0528 48.5286C23.0544 48.5509 22.8772 49.0849 22.9436 49.2066C22.9551 49.2276 23.0778 48.5767 23.2801 48.91C23.5239 49.3108 22.8986 49.6727 22.8899 50.3788C23.2879 49.4521 23.0859 50.4097 23.1556 50.3455C23.1801 50.3219 23.4866 49.5352 23.6284 49.6178C23.546 49.4632 23.4637 49.3086 23.3813 49.1539C23.518 49.0329 23.6906 49.2524 23.8121 49.109C23.8713 49.0392 23.9723 48.3621 24.0624 48.3994C24.0808 48.4109 23.8272 50.0588 23.7306 49.2765C23.5922 49.8551 23.7865 49.4995 23.8072 49.6754C23.8101 49.7028 23.6441 50.6827 23.8367 50.0919C23.8837 49.9465 24.2814 47.0702 24.3296 49.2205C24.3312 49.2898 24.2064 49.6347 24.206 49.7115C24.2059 49.7634 24.3545 49.6439 24.3574 49.697C24.3598 49.7539 24.2231 50.1304 24.2236 50.21C24.2256 50.6204 24.6475 49.1028 24.4539 49.1855C24.5494 49.0068 24.6449 48.828 24.7404 48.6493C24.4431 49.7973 24.7629 48.9939 24.834 49.0457C25.2902 49.3766 24.7997 50.0627 24.8065 50.4708C24.8177 51.1261 25.1164 49.1186 25.2011 49.7574C25.2088 49.8171 24.7875 50.6092 25.3716 50.2328C25.3064 50.1853 25.2412 50.1378 25.176 50.0903C25.4463 48.9764 25.4199 50.2203 25.4335 50.2394C25.5934 50.4325 25.5465 50.0015 25.7128 50.6374C25.7276 50.6945 25.8393 50.4288 25.8654 50.578C25.9742 51.1931 25.4982 50.8629 25.3913 51.3144C25.3392 51.5357 25.9115 51.594 25.9523 51.4922C26.1296 51.0402 25.7401 51.2339 25.9228 50.6652C25.9883 50.4633 26.7012 51.0506 26.9078 50.8569C27.1466 50.6312 27.5402 49.1264 27.1927 50.8365C27.5872 49.1688 27.3998 50.3233 27.4259 50.3166C27.7437 50.2196 27.7477 50.2028 27.9604 50.4135C28.0075 50.4595 28.1571 49.9596 28.1587 50.0495C28.1593 50.1037 28.0273 50.6444 28.0477 50.8237C28.0767 51.0692 28.6472 50.6017 28.7426 50.3074C28.8379 50.013 28.5765 50.1375 28.7181 49.6504C28.8923 49.6338 29.0246 49.7884 29.2004 49.7699C29.2737 49.7607 29.3091 49.4068 29.3402 49.406C29.3536 49.4043 29.5282 49.7579 29.4921 49.8837C29.408 50.1763 28.7175 49.8273 28.7863 50.4733C28.7996 50.5981 29.0937 49.826 28.8748 50.7931C29.573 50.7061 30.2712 50.6191 30.9694 50.532C30.7422 49.7289 30.1873 50.2926 29.808 50.1443C29.7558 50.1249 29.5546 50.1815 29.6768 49.695C30.0371 49.636 30.4006 49.9766 30.7868 49.7221C30.7993 49.7136 30.8515 49.2648 30.9042 49.2027C31.0028 49.0869 31.0919 49.8461 31.1688 49.6702C31.1843 49.6287 31.1696 49.0199 31.2854 48.6586C31.5828 47.7314 31.181 49.8374 31.2755 49.8308C31.3488 49.8247 32.0208 48.9038 32.0057 49.5691C31.9894 50.2782 31.5821 49.8964 31.5025 50.4626C31.7031 51.0889 32.1445 50.5538 32.4279 50.6845C32.4328 50.6874 32.2979 51.1163 32.3519 51.1912C32.4457 51.3214 32.6028 50.706 32.6793 50.618C32.7616 50.5245 32.958 50.6574 33.033 50.4366C33.0427 50.4076 33.1249 49.7822 33.1218 49.7635C33.0802 49.4903 32.8838 50.2838 32.8732 50.2923C32.8351 50.3162 32.8662 50.0033 32.8333 50.0156C32.7791 50.0362 32.6948 50.3144 32.6264 50.3265C32.5789 50.3359 32.7321 49.8 32.6849 49.8163C32.6671 49.8245 32.2468 51.0339 32.49 49.7615C32.5668 49.3603 34.0358 49.1245 34.1069 49.4723C33.9588 49.6011 33.8107 49.7299 33.6627 49.8587C33.9759 49.5356 34.0545 50.6079 34.3806 49.1116C35.2864 49.1685 36.1922 49.2254 37.098 49.2823C37.2813 49.1865 37.3917 48.2047 37.5932 48.5381C37.4637 48.8317 37.3342 49.1252 37.2048 49.4188C37.3813 49.2303 38.0548 48.9291 38.1094 49.1474C38.1164 49.176 37.9555 50.0522 38.0871 50.1571C38.2039 50.2498 38.3581 49.6003 38.4533 49.4892C38.5329 49.3978 38.5636 49.5825 38.5883 49.5499C38.6076 49.5238 38.6943 49.125 38.7406 49.0618C38.8857 48.8669 38.5742 49.9759 38.9382 48.7037C38.9238 48.6494 38.9094 48.5952 38.895 48.5409C39.0552 48.3787 39.3417 47.8259 39.2209 47.4996C39.2002 47.4433 39.1479 47.8356 39.1249 47.8302C38.2364 47.5742 39.1109 46.9693 39.305 47.6345C39.5031 47.0779 39.8873 47.5207 39.9255 47.4109C39.9799 47.2516 39.9953 46.7776 40.1782 46.4029C40.2167 46.3236 40.7604 46.7687 40.6964 45.9623C40.6831 45.7959 40.3575 45.9015 40.2916 45.8646C40.7049 44.6836 40.7384 46.5032 40.7911 46.4675C41.0058 46.3141 40.6674 45.3458 41.093 45.2855C41.4202 45.2394 40.9683 45.9921 41.0151 46.3623C41.0414 46.57 41.5689 45.7468 41.3236 46.9021C41.4169 47.0498 41.4725 46.423 41.4961 46.3819C41.5183 46.3461 41.6807 46.74 41.8061 46.5115C41.8214 46.483 41.9152 45.8757 41.9347 45.8284C41.9703 45.7479 42.1705 45.9139 42.1692 45.9667C42.1677 46.0033 42.0068 46.519 42.0028 46.6512C41.9984 46.8037 42.2399 46.7239 42.2211 46.8768C42.1916 47.1078 41.9552 46.9035 41.8796 47.5014C42.0329 47.3782 42.1533 47.812 42.1379 48.3026C42.1456 48.163 42.0302 48.1192 41.9791 48.1586C41.8227 49.025 42.0813 49.0655 42.1329 48.365C42.1138 48.743 42.0362 48.9297 41.997 49.282C41.9873 49.3714 42.0628 49.4055 42.0476 49.558C42.0435 49.5881 41.8955 49.8969 41.8761 50.0754C41.8412 50.398 42.0956 50.3757 42.1321 50.2966C42.2353 50.0725 42.0978 49.7479 42.1557 49.3808C42.1648 49.3245 42.4764 48.6455 42.4918 48.5831C42.6392 47.9095 42.3549 48.3586 42.5001 47.7547C42.5721 47.6356 42.644 47.5164 42.716 47.3973C42.665 46.7453 42.2738 46.9955 42.3325 46.2777C42.5517 46.5396 42.8306 46.5708 43.1518 44.9929C43.287 44.3284 43.2535 43.9159 43.2924 43.7478C43.4323 43.1467 43.4551 43.8354 43.4674 43.8046C43.4797 43.7688 43.4892 43.7333 43.4963 43.6984C43.4963 43.6984 43.4963 43.6984 43.4963 43.6984C43.5684 43.3445 43.3969 43.044 43.4187 42.8802C43.4584 42.5892 43.7988 41.4279 43.8519 41.1665C43.8592 41.1133 43.7571 40.8012 43.9038 40.3561C44.052 39.9064 44.1934 39.9247 44.208 39.8778C44.2908 39.6076 44.0984 39.3066 44.1243 39.1424C44.1373 39.0593 44.3712 38.5804 44.4046 38.4359C44.4376 38.2907 44.4031 37.9522 44.4577 37.4838C44.4983 37.1359 44.6368 36.891 44.6328 36.8343C44.6293 36.7966 44.3979 36.7555 44.3989 36.6931C44.4001 36.6007 44.5374 36.203 44.5504 36.0992C44.5692 35.9499 44.4648 36.0823 44.5053 35.933C44.5356 35.8218 45.111 34.4715 45.1859 34.0947C45.3135 33.4521 44.7072 34.8669 45.5076 32.3916C45.513 32.3753 45.5454 32.5695 45.5505 32.5542C45.6882 32.0969 45.6128 31.3347 45.8582 31.5153C45.5192 30.603 45.9923 30.5375 46.1381 29.4413C46.194 29.02 46.0335 28.8088 46.0453 28.7463C46.1717 28.2231 46.1507 28.6446 46.2245 28.3905C46.2656 28.2484 46.2044 27.6555 46.3175 27.3017C46.3759 27.1193 46.5479 27.2235 46.563 27.1887C46.7064 26.8606 46.6917 26.4727 46.7575 26.2323C46.8015 26.0711 46.9162 26.081 46.9251 26.0522C46.9423 25.9919 46.9248 25.3008 46.9404 25.0623C46.9528 24.8788 47.1002 24.6175 47.0992 24.5362C47.0929 24.0501 46.6355 25.1933 47.1822 23.5722C47.2157 23.4727 47.2858 23.53 47.2922 23.5101C47.4369 23.0484 47.3007 22.9782 47.3535 22.5869C47.4447 21.9126 47.5769 22.3259 47.4995 21.8228C47.7178 21.4142 47.7863 21.4471 47.9132 21.5993C47.5623 21.1754 47.7652 19.4231 48.2225 19.5616C48.0688 19.5582 48.2834 18.5896 48.2426 18.5635C48.217 18.5484 47.805 19.4709 48.3456 17.3229C48.4132 17.0545 48.4737 17.4253 48.5458 16.8626C48.2034 16.9402 48.6111 16.5085 48.6263 16.4353C48.8826 15.1574 47.9033 16.0472 47.8014 15.8748C47.6831 15.6747 47.7525 14.6407 47.7196 14.6326C47.6105 14.6099 47.5969 15.1394 47.5342 15.3222C47.4715 15.5033 47.3605 14.4611 47.334 14.5117C47.2298 14.7154 47.1674 15.3333 47.1549 15.3626C47.0048 15.7185 46.6843 15.1593 46.5388 15.2762C46.6225 14.8842 46.8633 14.9008 46.8455 14.2401C46.825 13.4698 46.4622 15.1994 46.4422 15.2747C45.6645 15.099 44.8867 14.9233 44.109 14.7477C44.3066 13.8284 44.6756 14.6273 44.7119 14.5084C44.9266 13.8042 44.0612 13.6415 43.8891 13.9452C44.01 13.7626 44.131 13.58 44.2519 13.3974C44.3306 12.3103 43.7463 13.6244 43.643 13.1163C43.6098 12.9516 43.8163 12.568 43.8195 12.5395C43.8312 12.1135 43.651 12.4068 43.6248 12.9768C43.5567 12.4117 43.4634 13.0008 43.3194 13.0171C43.3121 13.0175 43.4572 12.6019 43.3865 12.403C43.3533 12.3101 43.0865 12.2543 43.127 11.8731C43.1444 11.7128 43.6178 10.0829 43.3437 11.5129C43.7759 10.8767 43.3039 12.1818 43.4234 12.172C43.4423 12.1681 43.5648 11.3637 43.7725 11.7965C44.0111 10.3496 43.465 11.3566 43.4444 11.1712C43.4016 10.7901 44.0295 10.1458 43.8887 11.2829C44.0763 10.1541 43.9533 11.1388 44.069 11.1144C44.1954 11.0882 44.2128 10.7442 44.2761 10.7552C44.4499 10.7819 44.2173 11.5583 44.5045 10.8742C43.9161 13.0534 44.688 11.215 44.917 10.6595C44.7591 10.5106 44.6012 10.3617 44.4433 10.2128C44.4773 10.099 44.5112 9.98515 44.5452 9.87134C44.4942 9.87805 44.4433 9.88477 44.3923 9.89148C44.3773 10.0041 44.3623 10.1168 44.3473 10.2294C44.249 9.45709 44.0236 10.2566 44.0018 10.2616C43.7249 10.3032 43.4287 10.2355 43.1676 10.1851C43.1284 10.1775 43.3025 9.46049 42.9023 9.96801C42.7747 10.1296 42.7459 10.7091 42.6601 10.6038C42.8426 9.05025 42.5967 10.2689 42.558 10.263C42.4481 10.2404 42.458 9.84838 42.4487 9.84232C42.3249 9.75559 42.1131 9.7782 41.9754 9.69148C41.9737 9.68515 42.147 9.23174 42.0218 9.35082C41.9777 9.39346 41.264 11.3342 41.1303 10.6269C41.2272 10.5058 41.3242 10.3848 41.4212 10.2637C41.3011 10.436 40.8321 9.81462 41.0812 9.30695C41.2338 8.99673 41.1798 10.3305 41.4559 9.09358C41.1898 9.42637 40.2521 8.65631 40.1114 8.92812C40.0917 8.96698 40.0792 9.38403 40.0531 9.43237C40.033 9.46915 39.8117 9.32462 39.7481 9.47282C39.7104 9.56086 39.7664 9.82946 39.7282 9.97282C39.6995 10.0748 39.3637 10.186 39.4495 9.67754C39.482 9.89528 39.7256 9.7606 39.7035 9.3128C39.7003 9.2571 39.5613 9.56798 39.558 9.49744C39.5264 8.8466 39.9676 9.09125 40.0417 9.10104C39.8766 8.39736 39.2638 9.06228 39.0061 8.57297C38.7817 8.96495 39.0806 9.25779 38.8527 9.57398C38.38 10.2293 38.8846 8.97517 38.8854 8.91962C38.891 8.47914 38.1523 10.6953 38.5047 8.96577C38.3336 9.20205 38.3274 9.4279 38.207 9.16766C38.2533 9.05234 38.2996 8.93703 38.346 8.82171C38.3653 7.78219 37.4586 10.2299 37.4487 10.4287C37.4223 10.9607 37.7902 10.1974 37.8037 10.2203C37.8236 10.2542 37.537 12.0238 38.1389 10.5121C38.0144 11.7127 37.53 11.2154 37.6224 12.0699C37.4764 11.903 36.5984 12.5773 36.6014 12.0398C36.6029 11.9699 36.8989 10.8086 36.6016 11.3697C36.4602 11.637 36.6585 11.6916 36.5659 11.9511C36.2813 12.7471 34.7914 11.897 34.4969 11.7918C34.4775 11.7865 34.4105 12.152 34.3919 12.1447C34.3345 12.1224 34.2286 11.5355 34.0881 11.6813C34.4458 11.0525 34.0285 10.9128 33.9045 10.9647C33.7163 11.0439 33.5959 11.6866 33.4967 11.8082C33.1145 12.2772 32.9983 10.6695 32.4947 12.0476C32.7941 10.639 31.9839 12.6641 31.8079 12.6411C31.6699 12.6235 31.6631 11.6495 31.9625 11.1181C31.7147 11.1353 31.5214 10.8217 31.3188 10.6911C31.2854 10.6693 31.2504 11.0968 31.196 11.0464C31.1917 11.0388 31.2673 10.6283 31.2227 10.5749C30.8554 10.1288 30.8923 11.0414 30.7579 11.28C30.6827 11.4137 30.6342 11.4779 30.6044 11.4962C30.8446 11.6285 31.1076 11.8493 31.1844 11.8771C30.9328 12.7663 30.6513 11.5878 30.4551 11.8008C30.4482 11.8086 30.3645 12.3099 30.3586 12.3124C30.3585 12.3124 30.3584 12.3123 30.3582 12.3123C30.2955 12.3393 29.9828 12.0842 30.1759 11.5055C30.2275 11.3509 30.3887 11.384 30.5688 11.4769C30.5398 11.355 30.6921 10.8054 30.6878 10.7798C30.6333 10.4816 30.2511 10.9705 30.1399 11.0242C30.1147 11.0359 30.1891 10.679 30.1856 10.6774C30.0816 10.7407 29.9095 11.7679 30.0342 10.6978C29.6166 11.9366 30.2927 10.9471 30.0923 11.7661C29.9381 12.3967 28.9961 11.8491 29.2033 10.8484C29.178 10.9547 29.1369 11.0848 29.0776 11.2302C28.9458 11.5533 28.6857 11.3908 28.6747 11.1964C28.6739 11.1584 28.8754 10.1872 28.867 10.1761C28.8461 10.1486 28.3466 10.8404 28.3352 10.2398C28.4324 10.1177 28.5296 9.99565 28.6268 9.8736C28.2093 9.7797 28.3331 9.50367 28.532 9.24154C28.5395 9.24035 28.5538 9.20484 28.5613 9.20225C28.7134 9.00945 28.8943 8.83082 28.9121 8.75459C28.9797 8.46366 28.3017 8.15586 28.2547 9.08539C28.2486 9.21251 28.6595 8.87813 28.3654 9.48829C28.3139 9.59519 28.14 9.36847 28.1145 9.43713C27.9441 9.89344 28.2778 10.6139 28.0848 11.2723C28.1029 10.6116 27.8907 10.9183 27.7958 10.7274C27.7525 10.6411 27.8375 10.1509 27.8322 10.1402C27.7503 9.99103 27.7067 10.5142 27.6733 10.4942C27.6558 10.4814 27.6651 9.3508 27.3996 10.8579C26.9248 9.61261 27.4307 9.7169 27.8427 9.88881C27.8184 9.31523 27.4987 9.52507 27.4052 9.37401C27.3718 9.31928 27.4991 8.82427 27.4472 8.70947C27.3403 8.47336 26.5126 8.90304 26.2998 9.00075C26.3775 9.20065 26.2332 9.7387 26.1531 9.68317C26.0731 9.62737 26.295 8.91519 26.2939 8.83352C26.292 8.74883 25.8103 9.00814 25.761 8.89994C26.0173 9.22655 25.8366 9.7556 25.5619 9.75883C25.568 9.92307 25.5742 10.0873 25.5803 10.2516C25.4709 10.0002 24.9777 10.7629 24.9389 10.4981C24.933 10.4556 25.0763 10.009 25.073 9.98514C25.0344 9.7751 24.6734 10.1868 24.6928 10.0284C24.7088 9.89646 24.9003 9.53661 24.8967 9.33947C24.896 9.29797 24.6607 9.89316 24.5839 9.7194C24.5553 9.6554 24.6675 9.22828 24.6625 9.20118C24.621 8.97625 24.5221 9.71388 24.3926 9.5657C24.2979 9.45627 24.3592 8.72794 24.1558 8.93186C24.8506 8.12913 24.3448 8.42046 24.1876 8.10224C24.1623 8.05144 24.3515 7.2731 24.0695 7.61334C24.2148 9.12009 23.7928 8.33767 23.6754 8.32985C23.6682 8.33338 23.5606 8.85017 23.5029 8.84703C23.4982 8.8456 23.5763 8.49746 23.5297 8.46011C23.0875 8.10674 23.3227 8.56597 23.1586 8.89153C23.0887 9.03026 22.9494 8.48703 22.8871 8.4619C22.8725 8.45764 22.8053 8.82223 22.7507 8.79629C22.6542 8.74946 22.6418 8.34421 22.5809 8.29986C22.5734 8.29648 22.4563 8.86948 22.3668 8.65766C22.3416 8.5984 22.3429 8.38672 22.4273 8.23233C22.7065 7.72481 22.8352 8.72792 23.1361 8.22591C23.4103 7.76877 22.8717 7.61056 22.8437 7.60187C22.8336 7.59794 22.8827 7.90432 22.7624 7.93845C22.66 7.96639 22.6921 6.94199 22.5097 7.1293C22.4959 7.14314 22.2142 7.95981 22.2093 8.0098C22.2066 8.04648 22.3393 8.26329 22.2652 8.50111C22.2566 8.52818 22.1498 8.50054 22.0988 8.67848C22.0367 8.89507 21.5498 11.0456 21.5157 11.095C21.4293 11.2168 21.5682 10.732 21.523 10.7585C21.4262 10.814 21.0114 11.3947 21.1548 10.6441C21.2108 10.6093 21.2669 10.5744 21.323 10.5396C21.0771 10.4093 21.2536 10.1133 21.2452 9.96533C21.2362 9.80529 21.1133 10.4657 21.0125 10.5095C20.9905 10.5192 20.6496 10.3066 20.7126 10.0318C20.827 10.5129 20.9172 9.6842 20.9296 9.67159C20.9761 9.6259 20.9288 10.0914 20.9786 10.0921C21.3305 10.0895 21.1371 9.30006 21.2545 9.13114C21.2946 9.07441 21.2698 9.47497 21.2855 9.45741C21.3364 9.40062 21.441 8.89077 21.4578 8.93716C21.4971 9.04488 21.2813 9.75249 21.2783 9.79099C21.2388 10.2533 21.5594 9.73342 21.5912 8.9221C21.7259 8.65483 21.5404 9.61094 21.6792 9.24187C21.9546 8.51121 21.7332 8.66817 21.7095 8.5327C21.625 8.0442 21.4979 8.39978 21.2734 8.22343C21.1923 8.16085 21.1801 7.67554 21.1435 7.64157C21.1204 7.6202 20.543 9.18231 21.0503 6.65669C20.9039 6.88123 20.4132 8.51364 20.3291 8.41727C20.2539 8.32965 20.4644 7.44249 20.4631 7.40626C20.4613 7.34936 20.3389 7.39769 20.3281 7.26404C20.3156 7.10621 20.4065 6.76973 20.3669 6.61695C20.268 6.2377 20.0866 7.1501 20.0572 7.20578C19.7157 7.8493 20.0684 6.57086 20.0448 6.45773C20.0227 6.35368 19.3367 6.73356 19.2806 6.3804C19.2935 6.57317 19.3063 6.76594 19.3191 6.95871C19.1136 7.50899 19.2078 6.56231 18.9982 7.58148C19.3156 5.93179 18.9065 6.99434 18.8596 6.94049C18.8413 6.91853 18.9002 6.63839 18.8753 6.62072C18.7783 6.54973 18.4916 6.72382 18.4626 6.56977C18.3364 5.90629 19.1858 5.01858 19.2489 4.96736C19.1441 4.9649 18.6471 4.4796 19.0714 3.74192C19.137 3.62813 19.0588 4.3794 19.0758 4.41289C19.1916 4.63405 19.2047 3.94918 19.2296 3.88887C19.2709 3.79174 19.2425 4.45059 19.2848 4.38005C19.2987 4.35752 19.3629 3.74805 19.5129 3.76553C19.5585 3.17131 19.048 3.55893 19.0214 3.41178C19.0119 3.35924 19.3857 2.14583 18.786 3.27625C18.8135 3.16214 18.8411 3.04803 18.8686 2.93391C18.6809 2.84633 18.4931 2.75875 18.3054 2.67117C18.2728 2.94038 18.2752 3.49492 18.1586 3.35359C18.0916 3.27188 18.2713 2.69412 18.2675 2.67551C18.2284 2.49845 16.9119 2.43447 16.6779 2.31823C16.5981 2.27971 16.4602 1.75781 16.4441 1.74536C16.3468 1.6761 15.9052 1.90745 15.8433 1.82509C15.8049 1.77254 15.9503 1.28856 15.9034 1.30309C15.8597 1.31729 15.8031 1.80218 15.7874 1.81974C15.6558 1.9728 15.0512 1.19841 14.7857 1.61248C14.9194 1.49919 15.2555 2.55954 15.1763 2.89345C15.1646 2.93906 14.9618 3.27535 14.9713 3.09312C14.8433 3.49681 14.9486 2.20968 14.8163 2.43973C14.8013 2.46586 14.6942 3.17805 14.5217 3.27612C14.4624 3.30955 14.4423 2.7333 14.1839 3.32195C14.0518 2.98686 12.854 3.6946 12.939 2.92325C12.9451 2.88286 13.1407 2.65117 13.1078 2.32079C13.0641 1.88166 12.8953 3.29643 12.7218 3.38605C12.6956 3.39973 12.3095 3.17435 12.3134 3.08547C12.347 2.27899 12.774 2.03637 12.7875 1.94458C12.8214 1.71342 12.5484 1.51372 12.5252 1.56512C12.5021 1.61883 12.5368 2.70357 12.3216 2.25105C12.3807 2.1343 12.4397 2.01755 12.4987 1.9008C12.409 1.63169 12.2498 2.3448 12.2073 2.38167C12.0745 2.4988 12.1831 1.38846 11.7418 2.69726C11.6248 3.04464 11.6177 3.4554 11.6012 3.50772C11.4502 3.97657 11.644 2.67949 11.3688 3.62031C11.3482 3.69047 11.4175 4.30182 11.0918 4.23693C11.1329 4.14973 11.174 4.06253 11.2151 3.97533C11.211 3.76109 10.9063 3.57217 10.8521 3.61156C10.6938 3.72671 10.6724 4.4085 10.5583 4.30323C10.8258 3.41745 10.4541 3.21894 10.3184 4.00077C10.4621 3.01339 9.97239 3.69782 9.80962 3.68877C9.70706 3.68233 9.59049 3.2149 9.54865 3.25826C9.4976 3.31144 9.37357 3.97971 9.27365 4.11375C9.24515 4.15197 9.13719 3.62154 8.81454 4.27369C8.75216 4.39931 8.44775 5.51368 8.4558 5.80935C8.4696 6.3153 8.86754 5.44868 8.72876 6.11552C8.58001 6.82883 8.38047 6.34589 8.28446 6.42336C7.84106 6.78184 7.89162 7.58267 7.83557 7.81085C7.69803 8.36433 7.5073 8.30739 7.48896 8.35594C7.4099 8.57206 7.45747 9.04199 7.39008 9.38316C7.30213 9.82733 6.95163 10.5898 6.96371 10.7481C6.98135 10.9729 7.2895 10.3406 7.29391 10.3747C7.34817 10.8341 6.94452 11.8194 6.78819 12.312C6.74034 12.4636 6.75324 12.7315 6.73049 12.7742C6.38406 13.4216 6.9808 11.3248 6.81487 11.4391C6.66686 11.541 6.68671 12.2466 6.67447 12.2828C6.66011 12.3224 6.50657 12.3293 6.43511 12.563C6.39951 12.6801 6.51202 14.0676 6.37639 14.6518C6.28166 14.4977 6.18692 14.3436 6.09218 14.1894C5.92652 14.9534 6.2157 14.4251 6.21762 14.5078C6.22159 14.6736 6.0414 15.0406 5.99637 15.2837C5.96729 15.4382 5.97396 16.012 5.82051 16.2167C5.76769 16.2875 5.79982 15.7346 5.55371 16.2559C5.87808 17.0519 5.46651 17.4164 5.39742 17.6849C5.32862 17.9535 5.42148 18.6375 5.17375 18.4694C4.8581 19.9576 5.08352 18.9418 5.10704 19.2194C5.13563 19.5607 4.81773 20.0071 5.23812 19.705C5.07624 20.3989 4.80943 20.293 4.78342 20.3457C4.76047 20.3936 4.75203 20.7494 4.70637 20.8612C4.17188 22.1568 4.4757 21.5774 4.22495 22.4232C4.20258 22.4988 3.89216 22.768 4.05336 22.9315C4.34713 23.2289 4.69097 22.2689 4.31708 24.3949C3.87815 25.262 3.85146 23.8351 3.77967 23.7963C3.66936 23.7392 3.70275 24.1951 3.66368 24.313C3.65071 24.351 3.55706 24.2948 3.54872 24.3288C3.14798 25.9267 3.9925 24.4471 4.09942 24.761C4.0062 24.9935 3.91298 25.2261 3.81976 25.4586C3.87746 25.4804 3.93516 25.5022 3.99287 25.5241C3.60962 25.9516 3.94537 25.7058 3.75004 27.026C3.70613 27.3226 3.62196 26.7814 3.66875 27.6403C3.47324 27.7965 3.46897 28.0735 3.40173 27.6764C3.2987 28.2005 3.49845 28.8562 3.56995 29.1505C3.00399 29.6477 3.64976 27.7798 3.05706 28.7169C3.11768 28.0542 3.27601 28.2179 3.28281 28.1079C3.30738 27.7123 3.05663 28.2973 3.17908 26.9187C3.19939 26.6923 3.44318 26.0327 3.28119 26.034C3.26307 26.0351 3.04546 26.5969 3.03823 26.6394C2.95842 27.0979 3.09115 26.947 3.0564 27.1381C3.02348 27.319 2.93633 27.1884 2.92577 27.2383C2.80599 27.8086 2.97242 27.4751 2.92224 27.6511C2.81333 28.0338 2.16988 29.1825 2.75605 28.9272C2.46175 28.1947 2.83008 28.2855 2.94538 28.5673C2.97501 28.6381 2.91618 28.9814 2.95231 29.1121C2.99859 29.2812 3.12271 29.1359 3.15007 29.2067C3.17915 29.2845 2.76961 30.0408 3.17324 29.8725C2.82928 30.6376 2.68485 29.7176 2.39279 30.2446C1.80317 31.3095 2.36034 31.6776 2.40109 31.8007C2.41185 31.8341 2.26145 32.2832 2.26693 32.3137C2.27647 32.3607 2.66437 32.218 2.62062 32.6061C2.57684 32.9939 2.49802 32.5629 2.4064 32.9579C2.34467 33.2238 2.66355 33.7828 2.40132 33.9197C2.22072 34.0134 2.15403 32.8804 1.87036 34.0257C2.07889 34.1679 2.28743 34.31 2.49596 34.4521C2.28154 34.8662 2.06712 35.2803 1.8527 35.6943C2.08022 35.8859 2.40265 35.4348 2.51744 36.1136C1.64618 37.4029 2.47794 37.2762 2.4515 37.4494C2.43345 37.5525 1.97047 38.6487 1.89084 38.8503C2.00491 39.3316 2.58015 39.6727 1.93017 41.0104C2.0609 40.7051 2.05968 41.5243 2.04548 41.5833C1.89812 42.2028 1.63335 41.7276 1.57515 42.3023C1.50751 42.9693 1.78026 42.1014 1.86678 42.1928C2.30957 42.6676 1.50371 45.894 2.1282 45.4848C2.09424 45.5986 2.06027 45.7124 2.0263 45.8262C2.62856 45.7569 3.23081 45.6875 3.83306 45.6181C3.85129 46.6573 4.3158 47.3825 4.62699 47.3314C4.68951 47.3219 5.08137 46.8583 5.12156 46.7712C5.1972 46.6041 4.99148 46.4924 5.15762 46.184C5.1923 46.1208 5.72032 46.0001 5.57236 46.5492C5.50505 46.6027 5.39256 46.2885 5.3381 46.4139C4.95251 47.3096 6.59491 46.8661 6.59187 47.2581C6.52204 47.432 6.45221 47.606 6.38238 47.7799C6.49452 47.7102 6.60667 47.6405 6.71881 47.5708ZM11.5061 2.01837C11.5635 1.44876 11.3366 1.8391 11.2849 1.6654C11.2142 1.42248 11.4561 -0.766605 11.1014 1.40463C11.2363 1.60921 11.3712 1.81379 11.5061 2.01837ZM14.1536 1.69188C13.9788 1.96847 13.8217 3.18946 14.0169 2.70837C14.0388 2.65364 14.3897 1.31977 14.1536 1.69188ZM12.8453 2.01976C12.8469 2.03667 12.9516 2.02486 12.9589 2.00669C13.1455 1.54165 12.8291 1.57997 12.8453 2.01976ZM18.4773 3.81096C18.3627 3.73349 18.6763 2.65835 18.6625 3.12429C18.6615 3.15387 18.4851 3.81519 18.4773 3.81096ZM18.3823 3.82177C18.0854 4.78127 18.2941 2.75651 18.4091 2.98812C18.4201 3.01138 18.3966 3.775 18.3823 3.82177ZM13.6509 2.08742C13.5872 2.46538 13.7414 2.30805 13.8098 2.22847C13.8783 1.88551 13.6915 2.13938 13.6509 2.08742ZM16.6031 2.79799C16.5479 3.09408 16.1436 2.99467 16.1951 2.60011C16.2258 2.77822 16.6525 2.53186 16.6031 2.79799ZM17.564 3.42552C17.5432 3.47443 17.4182 3.36816 17.4754 3.10865C17.6138 2.78112 17.6576 3.20411 17.564 3.42552ZM19.6453 3.83176C19.6396 3.89872 19.1963 5.53407 19.6685 4.49451C19.7378 4.34231 19.695 3.88269 19.7202 3.8259C19.7711 3.71552 19.8037 3.66587 19.823 3.65973C19.7346 3.49867 19.6269 3.40942 19.5947 3.50754C19.443 3.97102 19.6474 3.80377 19.6453 3.83176ZM20.4844 5.28867C20.4532 5.56381 20.6358 5.45055 20.6934 5.34638C20.7036 5.32666 20.8224 4.61105 20.8805 4.67822C20.9269 4.73336 20.6959 5.44399 20.8274 5.34957C20.9603 5.25494 20.9204 4.70678 20.9374 4.67172C20.9601 4.62582 21.062 4.98686 21.1431 4.56273C21.203 4.24856 20.9792 4.42362 20.9482 4.34793C20.9084 4.25067 21.0842 3.7427 20.9658 3.83537C20.8914 3.89318 20.7375 4.81809 20.7154 4.86189C20.6972 4.8971 20.595 4.32592 20.4853 5.28584C20.485 5.28678 20.4847 5.28773 20.4844 5.28867ZM19.8462 3.70672C19.8438 3.67391 19.8369 3.65532 19.823 3.65973C19.831 3.67435 19.8386 3.69096 19.8462 3.70672ZM11.7525 2.48816C11.8693 2.21704 11.7679 1.81819 11.6258 2.17559C11.5637 2.47451 11.7341 2.53032 11.7525 2.48816ZM19.8017 4.47639C20.0215 4.28163 19.9588 3.93937 19.8462 3.70672C19.8598 3.88948 19.728 4.54138 19.8017 4.47639ZM14.9713 3.09312C14.9926 3.02612 15.0189 2.9203 15.0553 2.74502C14.997 2.93295 14.9743 3.03564 14.9713 3.09312ZM15.4384 2.86237C15.4678 3.42486 15.1912 3.34603 15.271 2.96405C15.3012 2.81989 15.4372 2.83999 15.4384 2.86237ZM18.6486 3.79156C18.6253 3.84126 18.4929 5.49473 18.4544 4.22585C18.6455 4.06674 18.5207 3.8583 18.5518 3.71749C18.6408 3.31265 18.817 3.75516 18.9094 3.59118C18.8056 4.32681 18.7255 3.6278 18.649 3.79162C18.6489 3.7916 18.6488 3.79158 18.6486 3.79156ZM22.5301 5.29827C22.5822 4.86544 22.4443 4.98002 22.365 4.98996C22.3129 5.42279 22.4508 5.30821 22.5301 5.29827ZM41.9555 9.19543C41.5274 8.69815 41.108 10.4186 41.7129 9.82812C41.7249 9.81558 41.9505 9.37747 41.9555 9.19543ZM37.5013 8.75514C37.2993 9.50106 37.4331 9.65489 37.6008 9.36402C37.6387 9.29863 37.8818 8.55095 37.8129 8.381C37.6293 9.29761 37.4042 9.61614 37.5013 8.75514ZM19.8007 4.98026C19.7483 5.49448 19.9764 5.16735 20.0735 5.10831C20.1083 4.68321 19.9051 4.83725 19.8007 4.98026ZM40.1007 9.75902C40.0355 9.80532 40.1334 9.14048 40.1538 9.08767C40.2463 8.8452 40.2381 9.39719 40.1007 9.75902ZM19.2846 4.95652C19.2161 5.25623 19.3622 5.58796 19.5283 4.84625C19.4735 4.89118 19.3282 4.76858 19.2846 4.95652ZM22.3441 5.49579C22.281 5.64241 22.3901 5.9502 22.471 5.80841C22.5323 5.48707 22.3852 5.40051 22.3441 5.49579ZM39.2836 9.36C39.224 9.40733 39.1006 9.4003 39.1415 9.13181C39.1927 8.79624 39.3454 8.9453 39.2836 9.36ZM48.094 11.7539C48.1244 11.6358 48.1142 10.7374 47.9873 10.9384C47.7456 11.3231 48.0703 11.8369 48.094 11.7539ZM40.5388 10.2015C40.8176 9.60705 40.5261 10.1784 40.667 9.52131C40.7736 9.51836 41.0336 9.53753 40.7274 10.1494C40.668 10.2677 40.595 10.1685 40.5388 10.2015ZM40.3543 10.3933C40.3816 10.1767 40.4096 9.48205 40.4941 9.54944C40.5329 9.58162 40.4508 10.3431 40.3543 10.3933ZM47.0035 11.2267C46.749 11.782 47.4345 11.596 47.4732 11.4976C47.4936 11.4456 47.5101 11.396 47.5224 11.3537C47.5076 11.5431 47.6182 11.6003 47.7271 11.1358C47.684 11.1672 47.5963 11.1065 47.5746 11.156C47.5653 11.1771 47.5575 11.1971 47.5507 11.2176C47.592 10.8035 47.052 11.1215 47.0035 11.2267ZM45.8511 11.6166C45.8309 12.5081 46.1565 11.0518 46.1527 11.002C46.1058 10.3692 45.9961 11.4698 45.9806 11.5193C45.9517 11.6009 45.9337 11.0761 45.8516 11.6167C45.8514 11.6167 45.8512 11.6166 45.8511 11.6166ZM46.7433 11.4242C46.7458 11.4446 46.8853 11.4259 46.8954 11.4039C47.1023 10.9344 46.708 10.985 46.7433 11.4242ZM21.098 6.47927C21.2209 6.35297 21.2391 5.79644 21.1376 5.97725C21.1287 5.99528 20.9895 6.59089 21.098 6.47927ZM40.3094 10.2332C40.267 10.3304 39.6357 10.6009 39.8345 9.79529C39.862 9.90075 40.576 9.6108 40.3094 10.2332ZM36.135 9.58733C36.2338 9.60093 36.2836 8.8131 36.1734 9.08807C36.1324 9.19023 36.1101 9.58342 36.135 9.58733ZM18.8661 5.5956C18.8506 5.15404 18.5836 6.57038 18.7701 6.10426C18.7774 6.08602 18.8667 5.61286 18.8661 5.5956ZM37.0041 9.30575C36.7623 8.77285 36.3468 11.2181 36.9514 10.4873C36.9598 10.3763 36.9681 10.2653 36.9765 10.1543C37.5556 9.89289 37.0459 9.99016 36.95 9.82897C36.9136 9.76771 37.0356 9.37029 37.005 9.30292C37.0047 9.30386 37.0044 9.3048 37.0041 9.30575ZM35.6125 9.5291C34.937 11.1871 35.7844 10.1905 35.9161 10.4512C35.8892 9.70425 35.6433 9.76633 36.0965 9.09956C35.6799 8.86783 35.7253 9.59226 35.6959 9.64571C35.6618 9.70544 35.6414 9.4579 35.6125 9.5291ZM36.4648 9.71495C36.4732 9.76905 36.6859 9.44687 36.7251 9.51447C36.7741 8.91104 36.4102 9.34756 36.4648 9.71495ZM44.8527 10.9965C44.7703 11.4603 44.73 11.8061 44.8765 11.6564C44.8894 11.4175 44.8589 11.2036 44.8527 10.9965ZM10.9039 4.42499C10.8204 4.44244 10.6322 4.58519 10.778 4.10956C10.7915 4.06926 10.9591 4.15263 10.9039 4.42499ZM38.6264 10.2794C38.5985 10.3328 38.1689 10.2849 38.4184 9.80539C38.4937 9.66079 38.8642 9.80426 38.6264 10.2794ZM40.8227 10.6669C40.7865 10.6645 40.6608 10.5483 40.68 10.4385C40.7472 10.0593 40.8809 10.3026 40.8227 10.6669ZM10.4206 4.81847C10.4008 4.86427 10.1838 4.73171 10.2552 4.51308C10.3904 4.09967 10.4889 4.66061 10.4206 4.81847ZM21.217 7.62939C21.2331 7.65045 21.3612 7.15448 21.3691 7.1503C21.3865 7.14639 21.7056 7.41226 21.6999 6.74084C21.699 6.62833 21.1329 6.7703 21.0528 6.8202C20.8866 7.503 21.2404 6.89335 21.2796 6.97508C21.2863 6.99046 21.1749 7.56736 21.2174 7.62646C21.2173 7.62744 21.2171 7.62841 21.217 7.62939ZM45.3336 11.6016C45.2603 12.0423 45.6226 12.4179 45.7258 11.8869C45.5951 11.7918 45.4644 11.6967 45.3336 11.6016ZM45.1048 11.6304C44.9518 11.9216 45.1415 12.0669 45.2314 11.943C45.2921 11.6488 45.1271 11.5879 45.1048 11.6304ZM39.6902 12.1383C39.6697 12.0227 39.93 11.4109 39.9262 11.2809C39.9233 11.1998 39.7799 11.4198 39.7904 11.214C39.7948 11.1488 40.0136 10.5685 40.0363 10.6001C40.0689 10.6428 39.9341 11.1071 39.9768 11.1192C40.1184 11.1586 40.3144 10.8478 40.4475 10.8831C40.4593 10.8872 40.297 11.2015 40.4017 11.2179C40.4178 11.2211 40.6154 10.7441 40.7244 10.843C40.6849 12.437 41.1941 10.9678 41.4289 11.5933C41.3862 11.7355 41.0469 12.071 41.0286 12.0822C40.6863 12.2759 40.1598 12.1974 39.8546 12.1386C39.7762 12.124 39.8805 11.8062 39.8493 11.7874C39.8245 11.7732 39.7332 12.3825 39.6902 12.1383ZM10.8766 4.76656C10.7173 5.36121 10.6668 4.95398 10.5785 4.96838C10.7181 4.43115 10.7694 4.88366 10.8766 4.76656ZM43.1176 11.7113C43.0813 11.6796 42.917 11.835 42.9435 11.6516C42.9782 11.4121 43.1923 11.3002 43.1176 11.7113ZM23.2731 7.87052C23.2737 7.88774 23.3791 7.87565 23.3867 7.85745C23.5734 7.39222 23.257 7.43083 23.2731 7.87052ZM25.6593 8.23629C25.7191 8.32589 25.7562 8.52944 25.881 8.04606C25.818 8.11114 25.7199 7.89425 25.6593 8.23629ZM28.9158 8.91533C28.7699 9.55192 29.0798 9.1836 29.1341 9.1349C29.1763 8.84736 29.0211 8.45668 28.9158 8.91533ZM44.427 13.0015C44.5725 12.9917 44.3459 13.9548 44.5228 13.5341C44.5522 13.4629 45.0097 11.4544 44.7041 12.1796C44.6491 12.3099 44.658 12.8112 44.427 13.0015ZM37.0268 10.4815C36.9755 10.9119 37.1107 10.8086 37.1916 10.7898C37.2391 10.472 37.0733 10.5224 37.0268 10.4815ZM9.89884 5.21615C9.71239 5.80046 9.50411 5.29635 9.6585 4.91663C9.67951 4.86727 9.85234 5.23019 9.89884 5.21615ZM19.7576 6.98172C19.7846 7.47727 19.5004 7.57111 19.5138 7.09499C19.544 7.13254 19.7557 6.94906 19.7576 6.98172ZM28.062 9.10346C28.0639 9.12395 28.2035 9.10511 28.214 9.08315C28.421 8.61359 28.0267 8.66425 28.062 9.10346ZM24.7241 8.85454C24.6921 9.25129 25.0644 9.0018 25.2126 8.62816C25.2615 8.04844 24.7644 8.35906 24.7241 8.85454ZM43.9161 12.6105C44.0103 12.6506 44.1279 12.5504 44.2523 12.4014C44.2998 12.0715 43.9761 12.3692 43.9161 12.6105ZM28.532 9.24154C28.5395 9.24035 28.5538 9.20484 28.5613 9.20225C28.5515 9.21465 28.5415 9.22903 28.532 9.24154ZM41.6688 12.3908C41.5601 12.5028 41.699 11.9089 41.7078 11.8917C41.8093 11.7109 41.7917 12.2645 41.6688 12.3908ZM10.6017 5.63413C10.4632 6.16734 10.4099 5.721 10.304 5.83302C10.414 5.41201 10.549 5.56448 10.6017 5.63413ZM35.0404 10.5625C34.8177 11.1258 35.1004 11.8906 35.266 11.5321C35.3462 11.1723 35.0718 10.4856 35.0404 10.5625ZM19.2112 7.71245C19.1169 8.13315 19.0439 7.58736 19.1222 7.39547C19.1719 7.27334 19.2697 7.45103 19.2112 7.71245ZM35.528 11.3289C35.5413 11.4659 35.7185 11.0679 35.7378 10.8073C35.7625 10.4732 35.5253 11.29 35.528 11.3289ZM39.0091 12.3919C38.9787 12.4529 38.8344 11.9719 39.0184 11.5607C39.1461 11.2749 39.0322 11.8876 39.0475 11.8926C39.0655 11.8942 39.5913 11.2232 39.0091 12.3919ZM32.6065 10.4496C32.6612 10.6299 32.8057 10.463 32.8953 10.4934C32.9111 10.2245 32.7146 10.1102 32.6065 10.4496ZM19.8702 7.96451C19.814 8.13097 19.2123 8.11545 19.6494 7.6569C19.6747 7.63111 20.0404 7.46038 19.8702 7.96451ZM44.427 13.0015C44.4086 13.0027 44.3845 13.0188 44.3527 13.0557C44.3792 13.044 44.4051 13.0195 44.427 13.0015ZM42.8488 12.7461C42.8178 13.06 42.6412 13.1096 42.6274 12.9364C42.6895 12.5578 42.8532 12.7022 42.8488 12.7461ZM32.8148 10.9237C32.8319 11.1104 32.9662 10.9422 33.0276 10.9761C33.0748 10.688 32.8969 10.638 32.8148 10.9237ZM29.0318 10.4874C29.1715 10.339 29.2849 10.4435 29.2156 10.7935C29.229 10.7393 29.2459 10.6824 29.2662 10.6258C29.2866 10.5698 29.366 10.7553 29.4393 10.646C29.8767 9.99676 28.393 9.99895 29.0171 11.1545C29.022 10.9321 29.0269 10.7098 29.0318 10.4874ZM24.1387 9.59241C23.9922 10.0059 23.9339 9.43846 24.0114 9.27971C24.065 9.17104 24.2858 9.17607 24.1387 9.59241ZM26.3831 10.3126C26.3498 10.385 26.2474 10.0536 26.2889 9.82858C26.4309 9.61151 26.5363 9.9763 26.3831 10.3126ZM23.5784 9.99734C23.5278 10.0539 23.62 9.35787 23.6305 9.32882C23.7196 9.08604 23.7192 9.62803 23.5784 9.99734ZM43.7646 14.7921C43.6688 14.9773 43.5924 14.4443 43.6462 13.9832C43.6211 14.0694 43.5784 14.1797 43.5149 14.3096C43.515 14.3096 43.5151 14.3096 43.5152 14.3097C43.4299 14.4829 41.9535 14.3903 43.0944 13.7137C43.1302 13.6919 43.0061 14.0904 43.1434 14.0437C43.1526 14.0401 43.2244 13.7088 43.2527 13.6977C43.3175 13.6744 43.667 13.5279 43.6741 13.8078C43.6872 13.7463 43.7032 13.6886 43.7226 13.6366C43.8959 13.173 43.8387 14.6494 43.7646 14.7921ZM26.6942 10.4394C26.6363 10.5558 26.5562 10.4177 26.6051 10.1224C26.686 9.9893 26.8289 10.1678 26.6942 10.4394ZM19.607 9.16348C19.4909 9.39091 19.4133 8.90566 19.5134 8.67654C19.5748 8.53558 19.7405 8.90243 19.607 9.16348ZM25.6851 10.0707C26.1393 9.80242 25.7709 10.1174 25.742 10.5592C25.7231 10.3964 25.7041 10.2335 25.6851 10.0707ZM45.7661 14.0442C45.6847 14.1306 45.5837 14.9934 45.7449 14.5469C45.7958 14.4051 45.8112 13.9974 45.7661 14.0442ZM48.4741 14.871C48.2686 15.6124 48.6136 15.2225 48.6195 14.6863C48.6184 14.668 48.4837 14.8431 48.4741 14.871ZM46.4816 14.7847C46.5445 14.2641 46.5299 14.1979 46.3871 14.3006C46.5308 14.4801 46.2779 14.9003 46.4816 14.7847ZM29.2033 10.8484C29.2082 10.8278 29.2119 10.8126 29.2156 10.7935C29.2111 10.8122 29.2071 10.83 29.2033 10.8484ZM23.2449 9.7905C23.1085 10.2145 22.9804 10.1551 23.1095 9.72668C23.1216 9.68703 23.2906 9.46596 23.2449 9.7905ZM43.6462 13.9832C43.6684 13.9068 43.6754 13.8559 43.6741 13.8078C43.6618 13.8657 43.6534 13.9209 43.6462 13.9832ZM23.8954 10.2914C23.9566 9.96674 24.1871 9.88263 24.1875 9.92232C24.1906 10.5076 23.976 10.3281 23.8954 10.2914ZM18.16 9.34235C18.1563 9.30642 18.3948 8.48484 18.3698 8.82068C18.3503 9.08125 18.1733 9.47895 18.16 9.34235ZM46.8362 15.0743C46.9012 15.0869 46.9924 15.1059 47.0902 14.7125C47.0343 14.7646 46.8942 14.7828 46.8362 15.0743ZM48.2632 15.3954C48.2817 14.9133 48.1063 14.8789 47.9789 14.933C47.8516 15.5466 48.2207 15.2364 48.2632 15.3954ZM43.9872 14.5991C43.9767 14.6229 43.7768 14.773 43.8828 14.3665C44.0381 13.7703 44.0786 14.3849 43.9872 14.5991ZM18.5662 8.96336C18.5812 9.26127 18.2365 10.0972 18.2967 9.40947C18.3275 9.0573 18.5636 8.91343 18.5662 8.96336ZM22.7089 10.2728C22.6615 10.0154 22.9857 9.64012 22.9313 10.0767C22.8801 10.1022 22.7259 10.364 22.7089 10.2728ZM25.8859 11.3733C25.3307 12.5513 25.9565 10.3234 25.9696 10.5332C25.9714 10.5631 25.8993 11.3457 25.8859 11.3733ZM8.6432 7.54087C8.63551 7.35989 8.92235 6.76847 8.85925 7.18347C8.8196 7.44314 8.64821 7.65623 8.6432 7.54087ZM30.6044 11.4962C30.5925 11.4897 30.5806 11.483 30.5688 11.4769C30.5741 11.4991 30.5851 11.5082 30.6044 11.4962ZM21.4992 11.7557C22.0689 10.0489 21.7715 11.3933 21.7915 11.3897C21.8353 11.379 22.0247 10.9247 22.0842 11.0178C22.0381 10.8031 21.992 10.5885 21.9459 10.3738C22.0398 10.2614 22.7633 9.73779 22.7179 10.0241C22.6533 10.4319 22.4928 10.2671 22.4801 10.3016C22.4619 10.3508 22.2037 11.4685 22.1777 11.5077C22.1354 11.5702 21.6355 11.4926 21.4992 11.7557ZM25.293 11.0502C25.3689 10.9265 25.4735 10.4842 25.4744 10.5952C25.4746 10.6332 25.3893 11.0581 25.3932 11.1733C25.3598 11.1322 25.3264 11.0912 25.293 11.0502ZM21.4388 10.1044C21.2727 10.611 21.5831 10.4691 21.6036 10.4127C21.7215 10.0704 21.5744 9.69057 21.4388 10.1044ZM23.7163 10.6473C23.7003 10.6755 23.4598 10.7952 23.5201 10.5076C23.6198 10.2993 23.9103 10.292 23.7163 10.6473ZM25.4198 11.2089C25.5028 11.1742 25.7278 10.7747 25.5816 11.4109C25.5815 11.4109 25.5814 11.4108 25.5813 11.4108C25.5274 11.3435 25.4736 11.2762 25.4198 11.2089ZM18.5398 10.3645C18.1971 11.3554 18.5235 10.0816 18.7101 9.77747C18.6531 10.2421 18.5958 10.2034 18.5398 10.3645ZM17.9527 11.0357C17.8777 11.2112 17.5313 10.9315 17.7003 10.4047C17.7605 10.2169 17.8844 10.7466 17.9023 10.7115C17.9291 10.6594 17.9796 10.0488 18.0743 10.1912C18.0262 10.3917 17.978 10.9771 17.9527 11.0357ZM18.2951 10.9938C18.0029 11.7409 18.264 10.3063 18.3657 10.323C18.4057 10.3285 18.337 10.8859 18.2951 10.9938ZM18.8683 10.9839C18.7924 11.1095 18.6234 11.2809 18.6316 10.7877C18.7585 10.7713 18.8855 10.755 19.0125 10.7386C18.9713 11.0105 18.9348 10.8734 18.868 10.9838C18.8681 10.9838 18.8682 10.9839 18.8683 10.9839ZM48.3238 19.22C48.1345 19.6033 48.3486 19.8086 48.3793 19.7112C48.4775 19.3872 48.4084 19.0488 48.3238 19.22ZM5.16417 20.3479C5.10161 20.5033 4.97391 21.0307 4.96543 20.739C5.11101 20.3602 5.25659 19.9814 5.40218 19.6026C5.26996 20.5116 5.23288 20.1764 5.16417 20.3479ZM4.24416 23.5801C4.24899 23.6038 3.91663 24.9753 4.22447 24.0772C4.43239 23.4708 4.11614 22.774 3.91179 23.3705C3.94151 23.6731 4.20053 23.3865 4.24416 23.5801ZM2.25391 29.4043C2.22637 29.5135 2.36059 29.7092 2.39577 29.6355C2.58086 29.2467 2.40173 28.8195 2.25391 29.4043ZM2.84099 29.2493C2.70788 29.5017 2.84629 29.7101 2.92954 29.5662C2.987 29.31 2.86107 29.2127 2.84099 29.2493ZM43.1632 39.0128C42.8869 39.9346 43.2232 37.8975 43.2707 38.3314C43.273 38.3519 43.1762 38.9676 43.1632 39.0128ZM2.13315 30.8315C2.26626 30.5792 2.12784 30.3708 2.0446 30.5147C1.9874 30.7706 2.11321 30.8683 2.13315 30.8315ZM42.6473 41.2378C42.3969 41.8906 42.899 39.6306 42.9317 39.5421C43.0633 39.193 43.0806 40.1237 43.0762 40.3533C42.8479 39.9523 42.7653 40.9302 42.6473 41.2378ZM42.4053 39.7699C42.3502 39.5066 42.7116 39.0983 42.6337 39.741C42.5879 39.7001 42.4208 39.8459 42.4053 39.7699ZM41.6226 40.3679C41.5498 40.4376 41.343 40.5981 41.3878 40.2355C41.4359 40.3126 41.6738 39.9958 41.6226 40.3679ZM41.2774 41.4113C41.0906 41.8783 41.3576 40.4611 41.3731 40.9026C41.3737 40.9197 41.2861 41.385 41.2774 41.4113ZM40.6795 41.8206C40.5073 42.3707 40.7205 40.989 40.8214 40.9712C40.8509 40.9684 40.6987 41.7574 40.6795 41.8206ZM42.0088 43.6491C41.8771 43.8736 41.9705 42.872 42.1687 42.8004C42.1373 42.638 42.1059 42.4757 42.0746 42.3133C42.4174 41.8111 42.1234 43.1666 42.2011 43.1239C42.31 43.0629 42.5313 41.9401 42.5845 41.5842C42.5203 42.2867 42.8407 42.3634 43.0004 42.5323C42.7778 42.7872 42.41 43.2328 42.2111 43.3825C42.1541 43.426 42.172 43.1093 42.1257 43.1357C42.051 43.1796 42.0167 43.6338 42.0091 43.6492C42.009 43.6492 42.0089 43.6491 42.0088 43.6491ZM40.0262 41.7085C39.727 42.3105 40.1143 40.9581 40.16 41.2227C40.1603 41.2424 40.0335 41.6938 40.0262 41.7085ZM1.05712 34.9617C1.40055 34.4334 1.39126 33.6386 1.62902 34.8911C1.59696 34.0322 1.73801 34.3003 1.76649 33.9623C1.78859 33.6948 1.62778 33.8873 1.80287 33.3751C1.59697 33.9294 1.24214 33.6922 1.20592 33.7816C1.20608 33.7817 1.20625 33.7817 1.20641 33.7817C1.18482 33.8347 0.947662 35.1296 1.05712 34.9617ZM40.8892 43.9611C40.4927 45.617 41.0101 42.966 40.6173 44.3253C40.8786 42.2884 41.0259 44.4083 41.4388 42.727C40.7944 42.8008 42.1804 41.1289 41.2414 43.5802C41.7766 42.7301 41.2911 43.9176 41.2789 44.2519C41.266 44.608 41.5389 44.2738 41.4023 44.8928C41.4022 44.8928 41.4021 44.8927 41.4019 44.8927C41.2906 44.8248 41.1792 44.7568 41.0679 44.6888C41.4587 43.3731 41.1312 43.7247 40.8253 44.7993C40.8466 44.5199 40.8679 44.2405 40.8892 43.9611ZM41.8259 42.8422C41.8078 42.8704 41.5847 42.6293 41.6564 42.3639C41.7262 42.1995 42.0554 42.4808 41.8259 42.8422ZM42.917 43.3695C42.8224 43.3536 42.624 43.5853 42.6758 43.0698C42.7704 43.0855 42.9689 42.8536 42.917 43.3695ZM38.0634 42.4795C38.0282 42.0406 38.4217 41.9929 38.215 42.4621C38.2051 42.4842 38.0653 42.5 38.0634 42.4795ZM40.6684 43.6535C40.4428 44.1383 40.831 42.5281 40.835 42.9691C40.8351 42.9951 40.6787 43.6314 40.6684 43.6535ZM1.20034 35.1961C1.12746 35.5951 1.51274 35.383 1.57024 35.3983C1.61248 35.0222 1.28389 34.7386 1.20034 35.1961ZM42.7791 44.8898C42.301 46.2806 42.384 44.5785 42.3488 44.6089C42.3137 44.64 42.2297 45.2734 42.22 45.2889C42.1985 45.321 41.9148 45.2086 41.9094 45.1622C41.9061 45.1262 42.1384 44.2593 42.134 43.9704C42.1508 44.4934 42.7526 44.2911 42.7606 44.394C42.7664 44.4761 42.4154 45.3646 42.7788 44.8897C42.7789 44.8897 42.779 44.8898 42.7791 44.8898ZM42.2404 44.786C42.3889 44.433 42.1921 44.3449 42.1145 44.4706C41.9417 44.7518 42.222 44.8277 42.2404 44.786ZM41.6753 45.0239C41.6349 45.1016 41.4071 45.1333 41.4725 44.72C41.6814 44.2091 41.7679 44.8425 41.6753 45.0239ZM39.3215 44.4867C39.277 44.4229 39.061 44.7067 39.1253 44.3471C39.1699 44.4105 39.3858 44.1269 39.3215 44.4867ZM1.68376 38.5485C1.531 38.8293 1.71852 38.995 1.80979 38.8639C1.86183 38.6259 1.69681 38.5244 1.68376 38.5485ZM39.95 47.0718C39.8951 47.174 39.2837 46.7664 39.2244 46.5797C39.371 46.3277 40.0361 46.4416 40.0391 46.5798C40.0398 46.6212 39.9577 47.0555 39.95 47.0718ZM41.3583 47.531C41.312 48.0705 41.4808 47.4465 41.4901 47.4401C41.5822 47.3749 41.7147 47.5257 41.7838 47.011C41.6087 47.1886 41.45 46.4595 41.3583 47.531ZM38.7878 46.862C38.6013 46.6202 39.1494 46.1536 38.98 46.6929C38.9695 46.7255 38.807 46.8873 38.7878 46.862ZM39.9932 47.2406C39.9563 47.6766 40.6981 47.4453 40.8053 47.4665C40.8696 46.6614 40.6706 47.2423 40.55 47.176C40.5176 47.1572 40.5935 46.8323 40.5899 46.831C40.5328 46.8036 40.5009 47.1902 40.4626 47.1884C40.4386 47.1862 40.0452 46.6262 39.9932 47.2406ZM41.3188 47.9032C41.2945 48.213 41.6847 48.4267 41.7178 48.3498C41.9649 47.7782 41.3726 47.8046 41.3188 47.9032ZM39.7896 47.9265C39.6752 48.8541 40.1311 48.3102 39.9972 47.8088C39.984 47.763 39.8116 48.1401 39.7896 47.9265ZM38.6347 47.7363C38.6181 47.7609 38.3449 47.8952 38.3999 47.6039C38.457 47.498 38.8217 47.4668 38.6347 47.7363ZM38.5568 48.7436C38.5525 48.7355 38.722 48.1873 38.5968 48.2357C38.5862 48.2404 38.4407 48.8664 38.3486 48.6076C38.33 48.5544 38.3712 48.1291 38.3796 48.1038C38.7259 47.1455 38.7764 49.1265 38.5568 48.7436ZM41.2224 48.4148C41.1458 48.6759 41.0392 49.4756 41.1694 49.0861C41.2255 48.918 41.2829 48.4367 41.2224 48.4148ZM37.8342 47.8387C37.8739 48.3449 37.4247 48.3475 37.4277 48.2207C37.5023 47.9256 37.83 47.7892 37.8342 47.8387ZM1.14575 42.2842C1.14564 42.2842 1.14553 42.2842 1.14543 42.2842C1.28295 42.1993 1.29257 41.7869 1.30052 41.7755C1.66554 41.2412 1.4166 42.1291 1.43336 42.2433C1.46891 42.4901 1.67906 41.3915 1.72549 41.8742C1.63241 41.1564 1.78431 41.4803 1.87031 41.0918C2.22045 39.506 1.41236 41.7744 1.36573 41.4175C1.35918 41.3681 1.58061 40.8844 1.56915 40.7316C1.53155 40.2364 0.618331 42.6083 1.14575 42.2842ZM41.1929 49.1634C41.1511 49.6416 41.6497 49.2712 41.6205 48.8642C41.6158 48.799 41.253 48.4662 41.1929 49.1634ZM22.0779 45.9845C22.0931 46.4089 21.7699 46.8382 21.7921 46.5148C21.8033 46.3538 22.0712 45.7983 22.0779 45.9845ZM20.1389 47.3912C20.0396 47.2854 20.2612 45.5739 20.3522 45.8651C20.3617 45.8968 20.1999 47.1599 20.1389 47.3912ZM27.9325 48.0777C27.6885 48.6557 27.9241 47.5373 28.0098 47.5712C28.0401 47.583 27.9403 48.0594 27.9325 48.0777ZM23.3392 46.9902C23.3191 47.0268 23.1936 46.9268 23.2512 46.6705C23.3345 46.5266 23.4723 46.7379 23.3392 46.9902ZM27.9385 48.2449C27.9078 48.0284 28.1966 47.2436 28.123 48.0531C28.0917 47.9791 27.9417 48.267 27.9385 48.2449ZM39.0348 50.3503C39.0684 49.8782 38.8699 49.9824 38.7883 49.8835C38.6563 50.4771 38.9869 50.228 39.0348 50.3503ZM20.7696 46.8134C20.7454 46.3712 21.0507 46.0754 20.916 46.626C20.9068 46.6555 20.7702 46.8322 20.7696 46.8134ZM31.7955 49.0946C31.7881 48.723 32.139 48.2968 31.9419 48.9072C31.9333 48.9319 31.7958 49.1153 31.7955 49.0946ZM32.9441 49.1145C32.8591 49.2221 32.6084 49.1325 32.7796 48.8063C32.8061 48.7562 33.006 48.7881 32.9441 49.1145ZM1.35274 42.6735C1.19533 43.2789 1.41443 43.1718 1.46336 43.0704C1.48308 43.0281 1.55763 41.886 1.35274 42.6735ZM27.1264 48.0129C27.0793 47.9236 26.8871 48.0359 26.924 47.709C26.9871 47.7911 27.2774 47.3776 27.1264 48.0129ZM21.2697 46.9184C21.0385 47.5639 20.8885 47.465 21.106 46.6043C21.2746 46.6994 20.9245 47.3808 21.2697 46.9184ZM28.1962 49.043C28.1356 49.0835 28.2672 48.2412 28.2809 48.203C28.4116 47.8401 28.3123 48.7285 28.1962 49.043ZM24.5649 47.5872C24.4893 47.9432 24.3612 47.7486 24.4295 47.5234C24.4523 47.4478 24.6261 47.2991 24.5649 47.5872ZM36.8835 50.123C36.7433 50.4334 36.9039 50.7976 37.048 50.4312C37.1921 49.8903 36.9005 50.0875 36.8835 50.123ZM29.6324 49.1185C29.532 49.6492 29.3412 49.2987 29.5299 48.8802C29.5771 48.7755 29.6659 48.941 29.6324 49.1185ZM31.9136 50.2446C31.8734 49.5791 32.674 49.2757 32.3273 50.0241C32.3025 50.0774 31.9175 50.3009 31.9136 50.2446ZM33.1523 50.0866C33.109 50.1502 32.761 51.9314 33.0214 51.2703C33.0553 51.1846 33.0771 50.6994 33.112 50.5946C33.1321 50.5348 33.4452 50.3386 33.4488 50.3825C33.4522 50.4323 33.3207 50.9992 33.3209 51.0658C33.3211 51.1402 33.5847 50.6725 33.6703 50.6843C33.8315 50.7073 33.752 51.1852 33.7647 51.1895C33.8022 51.2004 33.9348 50.8766 34.0119 50.8927C34.4 50.9758 34.9127 51.4992 35.4261 50.5563C35.0694 50.9042 34.8953 50.4224 34.6492 50.2349C34.5273 51.2414 34.4032 49.3901 34.4519 50.5901C34.3728 50.3158 33.2921 49.889 33.1526 50.0867C33.1525 50.0867 33.1524 50.0867 33.1523 50.0866ZM19.5794 47.7962C19.5269 48.4179 19.1891 48.2068 19.3013 47.4981C19.3694 47.4104 19.5846 47.7256 19.5794 47.7962ZM20.9644 49.621C20.977 49.7328 20.7673 50.9261 21.0681 50.3605C21.0682 50.3606 21.0684 50.3606 21.0686 50.3606C21.1565 50.1955 21.1561 49.8942 21.1866 49.7931C21.1987 49.7517 21.4814 49.1945 21.3659 49.072C21.19 48.8844 21.1666 49.951 21.0543 49.9412C21.0407 49.9394 20.9642 49.2547 21.005 49.1162C21.0096 49.1 21.0443 49.2486 21.0666 49.1921C21.1505 48.9797 21.2071 48.6053 21.2162 48.5887C21.2433 48.5472 21.4428 49.2455 21.603 48.7038C21.6547 48.5292 21.1996 48.0092 21.1598 48.0973C21.1347 48.1529 20.9305 49.1827 20.8961 49.2811C20.8788 49.3301 20.7407 48.9004 20.6933 48.9892C20.6795 49.0149 20.6673 49.0431 20.6578 49.0665C20.7554 48.7549 20.5545 48.7378 20.4873 49.0982C20.462 49.24 20.6137 49.1858 20.6235 49.1622C20.6278 49.1521 20.6326 49.1381 20.6363 49.1285C20.5293 49.5107 20.9901 49.5864 20.7737 50.1436C20.8418 50.4868 20.9276 49.2929 20.9644 49.621ZM21.4722 50.3856C21.4806 50.2746 21.489 50.1636 21.4973 50.0526C21.6754 50.3648 22.0494 49.8986 22.3159 49.9569C22.3837 49.971 22.1708 50.6167 22.2966 50.454C22.3973 50.3237 22.6013 49.726 22.5905 49.5813C22.588 49.5452 22.3615 49.9154 22.2972 49.8596C22.1077 49.6944 22.2775 49.138 22.2681 49.1202C22.2576 49.1012 22.0414 49.4727 21.9713 49.44C21.7955 49.3563 21.782 48.9907 21.4362 49.3942C21.5059 49.798 21.2603 50.5941 21.4722 50.3856ZM30.3686 50.9408C30.3046 51.2997 30.5211 51.0138 30.5656 51.0775C30.6299 50.7177 30.4131 51.0045 30.3686 50.9408ZM7.64385 46.7905C7.71669 46.1949 8.09589 46.121 7.9043 46.59C7.86185 46.6941 7.68862 46.7953 7.64385 46.7905ZM9.28708 46.7542C9.30081 46.9258 9.02647 47.3094 9.1193 46.8559C9.14922 46.7105 9.28536 46.7319 9.28708 46.7542ZM24.5896 50.4205C24.5947 50.4407 24.7499 50.3364 24.76 50.3074C24.9722 49.7024 24.4754 49.9758 24.5896 50.4205ZM11.0492 47.8651C10.9646 47.4477 11.4892 47.3812 11.2394 47.8405C11.227 47.8628 11.0533 47.8854 11.0492 47.8651ZM11.7094 48.1114C11.6745 48.0828 11.4621 48.2382 11.4962 48.0589C11.5516 47.7696 11.7904 47.613 11.7094 48.1114ZM27.7787 51.2639C27.6253 51.9204 27.956 51.467 28.0186 51.5664C28.1723 50.9094 27.8412 51.3635 27.7787 51.2639ZM26.2352 51.4563C27.0937 52.1735 27.1687 50.7193 26.2433 51.1229C26.1558 51.5463 26.181 51.4111 26.2352 51.4563ZM27.4864 51.6299C27.5376 51.1997 27.4025 51.3028 27.3215 51.3216C27.2749 51.6184 27.4485 51.543 27.4864 51.6299ZM7.04262 47.6126C6.99416 48.1594 7.3964 47.5552 7.3937 47.325C7.39232 47.2752 7.08032 47.3142 7.04262 47.6126ZM24.5552 51.0021C24.4018 51.6397 24.7449 51.4368 24.7961 51.2987C25.0025 50.7433 24.5497 51.1486 24.5552 51.0021ZM29.0327 52.1081C28.9813 52.6216 29.1793 52.3925 29.2741 52.4049C29.3192 51.9661 29.1138 52.1153 29.0327 52.1081ZM28.2778 52.3647C28.2797 52.3852 28.4193 52.3664 28.4299 52.3444C28.6368 51.8749 28.2425 51.9255 28.2778 52.3647ZM0.000789881 47.0824C0.001827 47.0995 0.107053 47.0876 0.114348 47.0694C0.300902 46.6044 -0.0154097 46.6427 0.000789881 47.0824Z" fill="#F893BB"/>
</svg>
